<svg width="104" height="114" viewBox="0 0 104 114" fill="none" xmlns="http://www.w3.org/2000/svg">
<rect x="17.9902" y="58.6323" width="46.6394" height="51.3033" transform="rotate(-90 17.9902 58.6323)" fill="#FFA763"/>
<rect width="15.9906" height="58.6324" transform="matrix(-1 0 0 1 91.2793 5.99609)" fill="#91E465"/>
<rect width="39.9766" height="32.6476" transform="matrix(-1 0 0 1 65.9629 69.959)" fill="#91E465"/>
<rect y="5.99609" width="5.99649" height="58.6324" fill="#181818"/>
<rect x="91.2793" width="5.99649" height="85.2834" transform="rotate(90 91.2793 0)" fill="#181818"/>
<rect x="21.3223" y="64.6294" width="5.99649" height="15.3244" transform="rotate(90 21.3223 64.6294)" fill="#181818"/>
<rect x="91.2793" y="64.6294" width="5.99649" height="15.9906" transform="rotate(90 91.2793 64.6294)" fill="#181818"/>
<rect x="91.2793" y="5.99609" width="5.99649" height="21.9871" fill="#181818"/>
<rect x="97.2754" y="27.9834" width="5.99649" height="15.3244" fill="#181818"/>
<rect x="79.9551" y="27.9834" width="5.99649" height="15.3244" fill="#FFF3CA"/>
<rect x="5.99805" y="5.99609" width="5.99649" height="58.6324" fill="#FFF3CA"/>
<rect x="69.293" y="5.99609" width="5.99649" height="58.6324" fill="#FFF3CA"/>
<rect x="11.9922" y="11.9932" width="5.99649" height="46.6394" fill="#E08844"/>
<rect x="17.9902" y="17.9893" width="5.99649" height="51.3033" transform="rotate(-90 17.9902 17.9893)" fill="#E08844"/>
<rect x="9.99219" y="11.9932" width="5.99649" height="60.6312" transform="rotate(-90 9.99219 11.9932)" fill="#FFF3CA"/>
<rect x="9.99219" y="64.6294" width="5.99649" height="60.6312" transform="rotate(-90 9.99219 64.6294)" fill="#FFF3CA"/>
<rect x="85.9492" y="27.9834" width="11.3267" height="15.3244" fill="#6FBD45"/>
<rect x="91.2793" y="43.3086" width="5.99649" height="21.3209" fill="#181818"/>
<rect x="70.625" y="70.6255" width="4.66394" height="26.6511" fill="#181818"/>
<rect x="21.3223" y="70.6255" width="4.66394" height="26.6511" fill="#181818"/>
<rect x="25.9844" y="97.2769" width="4.66394" height="10.6604" fill="#181818"/>
<rect x="65.9629" y="97.2769" width="4.66394" height="10.6604" fill="#181818"/>
<rect x="80.6191" y="79.2871" width="4.66394" height="10.6604" fill="#181818"/>
<rect x="75.2891" y="73.957" width="5.33021" height="5.33021" fill="#181818"/>
<rect x="85.2832" y="89.9468" width="5.33021" height="5.33021" fill="#181818"/>
<rect width="4.66394" height="10.6604" transform="matrix(-1 0 0 1 15.9902 79.2871)" fill="#181818"/>
<rect width="5.33021" height="5.33021" transform="matrix(-1 0 0 1 21.3223 73.957)" fill="#181818"/>
<rect width="5.33021" height="5.33021" transform="matrix(-1 0 0 1 11.3281 89.9468)" fill="#181818"/>
<rect width="6.66277" height="5.33021" transform="matrix(-1 0 0 1 65.9629 107.937)" fill="#181818"/>
<rect width="6.66277" height="5.33021" transform="matrix(-1 0 0 1 65.9629 102.606)" fill="#FFF3CA"/>
<rect width="6.66277" height="5.33021" transform="matrix(-1 0 0 1 37.3125 102.606)" fill="#FFF3CA"/>
<rect width="5.99649" height="5.99649" transform="matrix(-1 0 0 1 64.627 32.6475)" fill="#FFF3CA"/>
<rect width="5.99649" height="5.99649" transform="matrix(-1 0 0 1 23.9844 32.6475)" fill="#FFF3CA"/>
<rect width="5.99649" height="5.99649" transform="matrix(-1 0 0 1 43.3086 43.3086)" fill="#FFF3CA"/>
<rect width="6.66277" height="5.33021" transform="matrix(-1 0 0 1 37.3125 107.937)" fill="#181818"/>
<rect width="5.33021" height="10.6604" transform="matrix(-1 0 0 1 42.6406 97.2769)" fill="#181818"/>
<rect width="5.33021" height="10.6604" transform="matrix(-1 0 0 1 59.2969 97.2769)" fill="#181818"/>
<rect width="5.33021" height="16.6569" transform="matrix(-1 0 0 1 59.2969 75.9551)" fill="#6FBD45"/>
<rect width="4.66394" height="26.6511" transform="matrix(-1 0 0 1 70.625 70.6255)" fill="#6FBD45"/>
<rect width="5.99649" height="53.9684" transform="matrix(-4.37114e-08 1 1 4.37114e-08 21.3223 64.6294)" fill="#6FBD45"/>
<rect width="22.6534" height="16.6569" transform="matrix(-1 0 0 1 53.9688 75.9551)" fill="#FFF3CA"/>
<rect width="5.33021" height="18.6558" transform="matrix(-4.37114e-08 1 1 4.37114e-08 38.6426 97.2769)" fill="#181818"/>
</svg>
