<svg width="104" height="114" viewBox="0 0 104 114" fill="none" xmlns="http://www.w3.org/2000/svg">
<rect width="46.6394" height="51.3033" transform="matrix(4.37114e-08 -1 -1 -4.37114e-08 85.2812 58.6323)" fill="#24C2F9"/>
<rect x="11.9922" y="5.99609" width="15.9906" height="58.6324" fill="#FF4D42"/>
<rect x="37.3086" y="69.959" width="39.9766" height="32.6476" fill="#FF4D42"/>
<rect width="5.99649" height="58.6324" transform="matrix(-1 0 0 1 103.271 5.99609)" fill="#181818"/>
<rect width="5.99649" height="85.2834" transform="matrix(4.37114e-08 1 1 -4.37114e-08 11.9922 0)" fill="#181818"/>
<rect width="5.99649" height="15.3244" transform="matrix(4.37114e-08 1 1 -4.37114e-08 81.9492 64.6294)" fill="#181818"/>
<rect width="5.99649" height="15.9906" transform="matrix(4.37114e-08 1 1 -4.37114e-08 11.9922 64.6294)" fill="#181818"/>
<rect width="5.99649" height="21.9871" transform="matrix(-1 0 0 1 11.9922 5.99609)" fill="#181818"/>
<rect width="5.99649" height="15.3244" transform="matrix(-1 0 0 1 5.99609 27.9834)" fill="#181818"/>
<rect width="5.99649" height="15.3244" transform="matrix(-1 0 0 1 23.3164 27.9834)" fill="#FFF3CA"/>
<rect width="5.99649" height="58.6324" transform="matrix(-1 0 0 1 97.2734 5.99609)" fill="#FFF3CA"/>
<rect width="5.99649" height="58.6324" transform="matrix(-1 0 0 1 33.9785 5.99609)" fill="#FFF3CA"/>
<rect width="5.99649" height="46.6394" transform="matrix(-1 0 0 1 91.2793 11.9932)" fill="#009FD6"/>
<rect width="5.99649" height="51.3033" transform="matrix(4.37114e-08 -1 -1 -4.37114e-08 85.2812 17.9893)" fill="#009FD6"/>
<rect width="5.99649" height="60.6312" transform="matrix(4.37114e-08 -1 -1 -4.37114e-08 93.2793 11.9932)" fill="#FFF3CA"/>
<rect width="5.99649" height="60.6312" transform="matrix(4.37114e-08 -1 -1 -4.37114e-08 93.2793 64.6294)" fill="#FFF3CA"/>
<rect width="11.3267" height="15.3244" transform="matrix(-1 0 0 1 17.3223 27.9834)" fill="#E53328"/>
<rect width="5.99649" height="21.3209" transform="matrix(-1 0 0 1 11.9922 43.3086)" fill="#181818"/>
<rect width="4.66394" height="26.6511" transform="matrix(-1 0 0 1 32.6465 70.6255)" fill="#181818"/>
<rect width="4.66394" height="26.6511" transform="matrix(-1 0 0 1 81.9492 70.6255)" fill="#181818"/>
<rect width="4.66394" height="10.6604" transform="matrix(-1 0 0 1 77.2871 97.2769)" fill="#181818"/>
<rect width="4.66394" height="10.6604" transform="matrix(-1 0 0 1 37.3086 97.2769)" fill="#181818"/>
<rect width="4.66394" height="10.6604" transform="matrix(-1 0 0 1 22.6523 79.2871)" fill="#181818"/>
<rect width="5.33021" height="5.33021" transform="matrix(-1 0 0 1 27.9824 73.957)" fill="#181818"/>
<rect width="5.33021" height="5.33021" transform="matrix(-1 0 0 1 17.9883 89.9468)" fill="#181818"/>
<rect x="87.2812" y="79.2871" width="4.66394" height="10.6604" fill="#181818"/>
<rect x="81.9492" y="73.957" width="5.33021" height="5.33021" fill="#181818"/>
<rect x="91.9434" y="89.9468" width="5.33021" height="5.33021" fill="#181818"/>
<rect x="37.3086" y="107.937" width="6.66277" height="5.33021" fill="#181818"/>
<rect x="37.3086" y="102.606" width="6.66277" height="5.33021" fill="#FFF3CA"/>
<rect x="65.959" y="102.606" width="6.66277" height="5.33021" fill="#FFF3CA"/>
<rect x="38.6445" y="32.6475" width="5.99649" height="5.99649" fill="#FFF3CA"/>
<rect x="48.6367" y="39.3101" width="5.33021" height="9.32788" fill="#FFF3CA"/>
<rect x="69.959" y="39.3101" width="5.33021" height="9.32788" fill="#FFF3CA"/>
<rect x="51.3008" y="48.6382" width="4.66394" height="23.986" transform="rotate(-90 51.3008 48.6382)" fill="#FFF3CA"/>
<rect x="79.2871" y="32.6475" width="5.99649" height="5.99649" fill="#FFF3CA"/>
<rect x="65.959" y="107.937" width="6.66277" height="5.33021" fill="#181818"/>
<rect x="60.6309" y="97.2769" width="5.33021" height="10.6604" fill="#181818"/>
<rect x="43.9746" y="97.2769" width="5.33021" height="10.6604" fill="#181818"/>
<rect x="43.9746" y="75.9551" width="5.33021" height="16.6569" fill="#E53328"/>
<rect x="32.6465" y="70.6255" width="4.66394" height="26.6511" fill="#E53328"/>
<rect x="81.9492" y="64.6294" width="5.99649" height="53.9684" transform="rotate(90 81.9492 64.6294)" fill="#E53328"/>
<rect x="49.3027" y="75.9551" width="22.6534" height="16.6569" fill="#FFF3CA"/>
<rect x="64.6289" y="97.2769" width="5.33021" height="18.6558" transform="rotate(90 64.6289 97.2769)" fill="#181818"/>
</svg>
