<svg width="102" height="112" viewBox="0 0 102 112" fill="none" xmlns="http://www.w3.org/2000/svg">
<rect x="17.7695" y="57.9097" width="46.0643" height="50.6707" transform="rotate(-90 17.7695 57.9097)" fill="#FFA763"/>
<rect width="15.7935" height="57.9094" transform="matrix(-1 0 0 1 90.1562 5.92236)" fill="#FFDF51"/>
<rect width="39.4837" height="32.245" transform="matrix(-1 0 0 1 65.1484 69.0959)" fill="#FFDF51"/>
<rect y="5.92236" width="5.92255" height="57.9094" fill="#181818"/>
<rect x="90.1562" width="5.92255" height="84.2318" transform="rotate(90 90.1562 0)" fill="#181818"/>
<rect x="21.0586" y="63.832" width="5.92255" height="15.1354" transform="rotate(90 21.0586 63.832)" fill="#181818"/>
<rect x="90.1562" y="63.832" width="5.92255" height="15.7935" transform="rotate(90 90.1562 63.832)" fill="#181818"/>
<rect x="90.1562" y="5.92236" width="5.92255" height="21.716" fill="#181818"/>
<rect x="96.0781" y="27.6383" width="5.92255" height="15.1354" fill="#181818"/>
<rect x="78.9668" y="27.6383" width="5.92255" height="15.1354" fill="#FFF3CA"/>
<rect x="5.92188" y="5.92236" width="5.92255" height="57.9094" fill="#FFF3CA"/>
<rect x="68.4375" y="5.92236" width="5.92255" height="57.9094" fill="#FFF3CA"/>
<rect x="11.8438" y="11.8451" width="5.92255" height="46.0643" fill="#E08844"/>
<rect x="17.7695" y="17.7677" width="5.92255" height="50.6707" transform="rotate(-90 17.7695 17.7677)" fill="#E08844"/>
<rect x="9.86914" y="11.8451" width="5.92255" height="59.8836" transform="rotate(-90 9.86914 11.8451)" fill="#FFF3CA"/>
<rect x="9.86914" y="63.832" width="5.92255" height="59.8836" transform="rotate(-90 9.86914 63.832)" fill="#FFF3CA"/>
<rect x="84.8887" y="27.6383" width="11.187" height="15.1354" fill="#E9CA3F"/>
<rect x="90.1562" y="42.7745" width="5.92255" height="21.058" fill="#181818"/>
<rect x="69.7559" y="69.7548" width="4.60643" height="26.3224" fill="#181818"/>
<rect x="21.0586" y="69.7548" width="4.60643" height="26.3224" fill="#181818"/>
<rect x="25.666" y="96.0773" width="4.60643" height="10.529" fill="#181818"/>
<rect x="65.1484" y="96.0773" width="4.60643" height="10.529" fill="#181818"/>
<rect x="79.625" y="78.3094" width="4.60643" height="10.529" fill="#181818"/>
<rect x="74.3613" y="73.0448" width="5.26449" height="5.26449" fill="#181818"/>
<rect x="84.2305" y="88.8383" width="5.26449" height="5.26449" fill="#181818"/>
<rect width="4.60643" height="10.529" transform="matrix(-1 0 0 1 15.7949 78.3094)" fill="#181818"/>
<rect width="5.26449" height="5.26449" transform="matrix(-1 0 0 1 21.0586 73.0448)" fill="#181818"/>
<rect width="5.26449" height="5.26449" transform="matrix(-1 0 0 1 11.1855 88.8383)" fill="#181818"/>
<rect width="6.58061" height="5.26449" transform="matrix(-1 0 0 1 65.1484 106.606)" fill="#181818"/>
<rect width="6.58061" height="5.26449" transform="matrix(-1 0 0 1 65.1484 101.341)" fill="#FFF3CA"/>
<rect width="6.58061" height="5.26449" transform="matrix(-1 0 0 1 36.8516 101.341)" fill="#FFF3CA"/>
<rect width="5.92255" height="5.92255" transform="matrix(-1 0 0 1 63.834 32.2449)" fill="#FFF3CA"/>
<rect width="5.92255" height="5.92255" transform="matrix(-1 0 0 1 23.6914 32.2449)" fill="#FFF3CA"/>
<rect width="5.92255" height="5.92255" transform="matrix(-1 0 0 1 43.4316 44.09)" fill="#FFF3CA"/>
<rect width="5.92255" height="5.92255" transform="matrix(-1 0 0 1 37.5098 38.1676)" fill="#FFF3CA"/>
<rect width="5.92255" height="5.92255" transform="matrix(-1 0 0 1 49.3535 38.1676)" fill="#FFF3CA"/>
<rect width="6.58061" height="5.26449" transform="matrix(-1 0 0 1 36.8516 106.606)" fill="#181818"/>
<rect width="5.26449" height="10.529" transform="matrix(-1 0 0 1 42.1172 96.0773)" fill="#181818"/>
<rect width="5.26449" height="10.529" transform="matrix(-1 0 0 1 58.5664 96.0773)" fill="#181818"/>
<rect width="5.26449" height="16.4515" transform="matrix(-1 0 0 1 58.5664 75.0184)" fill="#E9CA3F"/>
<rect width="4.60643" height="26.3224" transform="matrix(-1 0 0 1 69.7559 69.7548)" fill="#E9CA3F"/>
<rect width="5.92255" height="53.3029" transform="matrix(-4.37114e-08 1 1 4.37114e-08 21.0586 63.832)" fill="#E9CA3F"/>
<rect width="22.3741" height="16.4515" transform="matrix(-1 0 0 1 53.3027 75.0184)" fill="#FFF3CA"/>
<rect width="5.26449" height="18.4257" transform="matrix(-4.37114e-08 1 1 4.37114e-08 38.168 96.0773)" fill="#181818"/>
</svg>
