<?xml version="1.0" encoding="utf-8"?>
<!-- Generator: Adobe Illustrator 24.1.1, SVG Export Plug-In . SVG Version: 6.00 Build 0)  -->
<svg version="1.1" id="Слой_1" xmlns="http://www.w3.org/2000/svg" xmlns:xlink="http://www.w3.org/1999/xlink" x="0px" y="0px"
	 viewBox="0 0 1428 932.1" style="enable-background:new 0 0 1428 932.1;" xml:space="preserve">
<style type="text/css">
	.st0{fill:#F0F0F0;}
	.st1{fill:#F0F0F0;stroke:#F0F0F0;stroke-width:8.636;}
</style>
<path class="st0" d="M458.6,38.6h9.5v30.4h-9.5V38.6z"/>
<path class="st0" d="M478.9,48.9v9.5h-31.2v-9.5H478.9z"/>
<path class="st0" d="M1348.9,131.6h9.5v30.4h-9.5V131.6z"/>
<path class="st0" d="M1369.2,141.9v9.5H1338v-9.5H1369.2z"/>
<path class="st0" d="M753,26.6h24.8v10.7H753V26.6z"/>
<path class="st0" d="M767.1,53.3V28.6h10.7v24.7H767.1z"/>
<path class="st1" d="M308.9,106.4c0,8.2-6.6,14.8-14.8,14.8c-8.2,0-14.8-6.6-14.8-14.8c0-8.2,6.6-14.8,14.8-14.8
	C302.3,91.6,308.9,98.2,308.9,106.4z"/>
<path class="st1" d="M121.9,166.6c0,8.2-6.6,14.8-14.8,14.8s-14.8-6.6-14.8-14.8c0-8.2,6.6-14.8,14.8-14.8S121.9,158.5,121.9,166.6z
	"/>
<path class="st0" d="M659.8,54.3H635V43.6h24.8V54.3z"/>
<path class="st0" d="M645.8,27.6v24.7H635V27.6H645.8z"/>
<path class="st1" d="M1110.3,188.4c0,8.2-6.6,14.8-14.8,14.8s-14.8-6.6-14.8-14.8c0-8.2,6.6-14.8,14.8-14.8
	S1110.3,180.2,1110.3,188.4z"/>
<path class="st0" d="M187.8,87.3H163V76.6h24.8V87.3z"/>
<path class="st0" d="M173.8,60.6v24.7H163V60.6H173.8z"/>
<path class="st0" d="M898.8,208.3H874v-10.7h24.8V208.3z"/>
<path class="st0" d="M884.8,181.6v24.7H874v-24.7H884.8z"/>
<rect x="1190" y="120.6" transform="matrix(0.7071 -0.7071 0.7071 0.7071 264.5248 889.1976)" class="st0" width="31.2" height="9.5"/>
<rect x="459.7" y="193.3" transform="matrix(0.7071 -0.7071 0.7071 0.7071 -11.7178 389.5763)" class="st0" width="9.5" height="31.2"/>
<rect x="1043.2" y="37.6" class="st0" width="9.8" height="9.8"/>
<rect x="1053" y="47.3" class="st0" width="9.8" height="9.8"/>
<rect x="1062.8" y="37.6" class="st0" width="9.8" height="9.8"/>
<rect x="1072.6" y="47.3" class="st0" width="9.8" height="9.8"/>
<rect x="1082.4" y="37.6" class="st0" width="9.8" height="9.8"/>
<rect x="1092.2" y="47.3" class="st0" width="9.8" height="9.8"/>
<rect x="683" y="186.6" class="st0" width="9.8" height="9.8"/>
<rect x="692.8" y="196.3" class="st0" width="9.8" height="9.8"/>
<rect x="702.6" y="186.6" class="st0" width="9.8" height="9.8"/>
<rect x="712.4" y="196.3" class="st0" width="9.8" height="9.8"/>
<rect x="722.2" y="186.6" class="st0" width="9.8" height="9.8"/>
<rect x="732" y="196.3" class="st0" width="9.8" height="9.8"/>
<path class="st0" d="M458.6,720.6h9.5v30.4h-9.5V720.6z"/>
<path class="st0" d="M478.9,730.9v9.5h-31.2v-9.5H478.9z"/>
<path class="st0" d="M1276.9,675.6h9.5v30.4h-9.5V675.6z"/>
<path class="st0" d="M1297.2,685.9v9.5H1266v-9.5H1297.2z"/>
<path class="st0" d="M753,708.6h24.8v10.7H753V708.6z"/>
<path class="st0" d="M767.1,735.3v-24.7h10.7v24.7H767.1z"/>
<path class="st1" d="M308.9,788.4c0,8.2-6.6,14.8-14.8,14.8c-8.2,0-14.8-6.6-14.8-14.8s6.6-14.8,14.8-14.8
	C302.3,773.6,308.9,780.2,308.9,788.4z"/>
<path class="st0" d="M659.8,736.3H635v-10.7h24.8V736.3z"/>
<path class="st0" d="M645.8,709.6v24.7H635v-24.7H645.8z"/>
<path class="st1" d="M1082.9,870.6c0,8.2-6.6,14.8-14.8,14.8c-8.2,0-14.8-6.6-14.8-14.8c0-8.2,6.6-14.8,14.8-14.8
	C1076.3,855.9,1082.9,862.5,1082.9,870.6z"/>
<path class="st0" d="M187.8,769.3H163v-10.7h24.8V769.3z"/>
<path class="st0" d="M173.8,742.6v24.7H163v-24.7H173.8z"/>
<path class="st0" d="M898.8,890.3H874v-10.7h24.8V890.3z"/>
<path class="st0" d="M884.8,863.6v24.7H874v-24.7H884.8z"/>
<rect x="1190" y="802.6" transform="matrix(0.7071 -0.7071 0.7071 0.7071 -217.7221 1088.9508)" class="st0" width="31.2" height="9.5"/>
<rect x="459.7" y="875.3" transform="matrix(0.7071 -0.7071 0.7071 0.7071 -493.9646 589.3295)" class="st0" width="9.5" height="31.2"/>
<rect x="1043.2" y="719.6" class="st0" width="9.8" height="9.8"/>
<rect x="1053" y="729.3" class="st0" width="9.8" height="9.8"/>
<rect x="1062.8" y="719.6" class="st0" width="9.8" height="9.8"/>
<rect x="1072.6" y="729.3" class="st0" width="9.8" height="9.8"/>
<rect x="1082.4" y="719.6" class="st0" width="9.8" height="9.8"/>
<rect x="1092.2" y="729.3" class="st0" width="9.8" height="9.8"/>
<rect x="683" y="868.6" class="st0" width="9.8" height="9.8"/>
<rect x="692.8" y="878.3" class="st0" width="9.8" height="9.8"/>
<rect x="702.6" y="868.6" class="st0" width="9.8" height="9.8"/>
<rect x="712.4" y="878.3" class="st0" width="9.8" height="9.8"/>
<rect x="722.2" y="868.6" class="st0" width="9.8" height="9.8"/>
<rect x="732" y="878.3" class="st0" width="9.8" height="9.8"/>
<path class="st0" d="M968.6,594.3h-9.5v-30.4h9.5V594.3z"/>
<path class="st0" d="M948.3,584v-9.5h31.2v9.5H948.3z"/>
<path class="st0" d="M78.4,501.3h-9.5v-30.4h9.5V501.3z"/>
<path class="st0" d="M58,491v-9.5h31.2v9.5H58z"/>
<path class="st0" d="M674.2,606.3h-24.8v-10.7h24.8V606.3z"/>
<path class="st0" d="M660.2,579.6v24.7h-10.7v-24.7H660.2z"/>
<path class="st1" d="M1118.4,526.5c0-8.2,6.6-14.8,14.8-14.8c8.2,0,14.8,6.6,14.8,14.8c0,8.2-6.6,14.8-14.8,14.8
	C1125,541.2,1118.4,534.6,1118.4,526.5z"/>
<path class="st1" d="M1305.4,466.2c0-8.2,6.6-14.8,14.8-14.8c8.2,0,14.8,6.6,14.8,14.8s-6.6,14.8-14.8,14.8
	C1312,481,1305.4,474.4,1305.4,466.2z"/>
<path class="st0" d="M767.4,578.6h24.8v10.7h-24.8V578.6z"/>
<path class="st0" d="M781.5,605.3v-24.7h10.7v24.7H781.5z"/>
<path class="st1" d="M316.9,444.5c0-8.2,6.6-14.8,14.8-14.8c8.2,0,14.8,6.6,14.8,14.8s-6.6,14.8-14.8,14.8
	C323.5,459.2,316.9,452.6,316.9,444.5z"/>
<path class="st0" d="M1239.4,545.6h24.8v10.7h-24.8V545.6z"/>
<path class="st0" d="M1253.5,572.3v-24.7h10.7v24.7H1253.5z"/>
<path class="st0" d="M528.4,424.6h24.8v10.7h-24.8V424.6z"/>
<path class="st0" d="M542.5,451.3v-24.7h10.7v24.7H542.5z"/>
<rect x="206" y="502.8" transform="matrix(0.7071 -0.7071 0.7071 0.7071 -293.9998 305.3762)" class="st0" width="31.2" height="9.5"/>
<rect x="958.1" y="408.3" transform="matrix(0.7071 -0.7071 0.7071 0.7071 -17.7564 804.9995)" class="st0" width="9.5" height="31.2"/>
<rect x="374.2" y="585.5" class="st0" width="9.8" height="9.8"/>
<rect x="364.5" y="575.7" class="st0" width="9.8" height="9.8"/>
<rect x="354.7" y="585.5" class="st0" width="9.8" height="9.8"/>
<rect x="344.9" y="575.7" class="st0" width="9.8" height="9.8"/>
<rect x="335.1" y="585.5" class="st0" width="9.8" height="9.8"/>
<rect x="325.3" y="575.7" class="st0" width="9.8" height="9.8"/>
<rect x="734.4" y="436.5" class="st0" width="9.8" height="9.8"/>
<rect x="724.6" y="426.7" class="st0" width="9.8" height="9.8"/>
<rect x="714.8" y="436.5" class="st0" width="9.8" height="9.8"/>
<rect x="705" y="426.7" class="st0" width="9.8" height="9.8"/>
<rect x="695.2" y="436.5" class="st0" width="9.8" height="9.8"/>
<rect x="685.4" y="426.7" class="st0" width="9.8" height="9.8"/>
</svg>
