<?xml version="1.0" encoding="utf-8"?>
<!-- Generator: Adobe Illustrator 24.1.1, SVG Export Plug-In . SVG Version: 6.00 Build 0)  -->
<svg version="1.1" id="Слой_1" xmlns="http://www.w3.org/2000/svg" xmlns:xlink="http://www.w3.org/1999/xlink" x="0px" y="0px"
	 viewBox="0 0 1474 1484.9" style="enable-background:new 0 0 1474 1484.9;" xml:space="preserve">
<style type="text/css">
	.st0{fill:#F0F0F0;}
	.st1{fill:#F0F0F0;stroke:#F0F0F0;stroke-width:8.636;}
</style>
<path class="st0" d="M481.6,390.8h9.5v30.4h-9.5V390.8z"/>
<path class="st0" d="M501.9,401.1v9.5h-31.2v-9.5H501.9z"/>
<path class="st0" d="M1371.9,483.8h9.5v30.4h-9.5V483.8z"/>
<path class="st0" d="M1392.2,494.1v9.5H1361v-9.5H1392.2z"/>
<path class="st0" d="M776,378.8h24.8v10.7H776V378.8z"/>
<path class="st0" d="M790,405.5v-24.7h10.7v24.7H790z"/>
<path class="st1" d="M331.8,458.6c0,8.2-6.6,14.8-14.8,14.8c-8.2,0-14.8-6.6-14.8-14.8c0-8.2,6.6-14.8,14.8-14.8
	C325.2,443.8,331.8,450.4,331.8,458.6z"/>
<path class="st1" d="M144.8,518.8c0,8.2-6.6,14.8-14.8,14.8s-14.8-6.6-14.8-14.8c0-8.2,6.6-14.8,14.8-14.8S144.8,510.7,144.8,518.8z
	"/>
<path class="st0" d="M682.8,406.5H658v-10.7h24.8V406.5z"/>
<path class="st0" d="M668.7,379.8v24.7H658v-24.7H668.7z"/>
<path class="st1" d="M1133.3,540.6c0,8.2-6.6,14.8-14.8,14.8s-14.8-6.6-14.8-14.8c0-8.2,6.6-14.8,14.8-14.8
	S1133.3,532.5,1133.3,540.6z"/>
<path class="st0" d="M210.8,439.5H186v-10.7h24.8V439.5z"/>
<path class="st0" d="M196.7,412.8v24.7H186v-24.7H196.7z"/>
<path class="st0" d="M921.8,560.5H897v-10.7h24.8V560.5z"/>
<path class="st0" d="M907.7,533.8v24.7H897v-24.7H907.7z"/>
<rect x="1213" y="472.8" transform="matrix(0.7071 -0.7071 0.7071 0.7071 22.2031 1008.6068)" class="st0" width="31.2" height="9.5"/>
<rect x="482.6" y="545.5" transform="matrix(0.7071 -0.7071 0.7071 0.7071 -254.0395 508.9854)" class="st0" width="9.5" height="31.2"/>
<rect x="1066.2" y="389.8" class="st0" width="9.8" height="9.8"/>
<rect x="1076" y="399.6" class="st0" width="9.8" height="9.8"/>
<rect x="1085.8" y="389.8" class="st0" width="9.8" height="9.8"/>
<rect x="1095.6" y="399.6" class="st0" width="9.8" height="9.8"/>
<rect x="1105.4" y="389.8" class="st0" width="9.8" height="9.8"/>
<rect x="1115.2" y="399.6" class="st0" width="9.8" height="9.8"/>
<rect x="706" y="538.8" class="st0" width="9.8" height="9.8"/>
<rect x="715.8" y="548.6" class="st0" width="9.8" height="9.8"/>
<rect x="725.6" y="538.8" class="st0" width="9.8" height="9.8"/>
<rect x="735.4" y="548.6" class="st0" width="9.8" height="9.8"/>
<rect x="745.2" y="538.8" class="st0" width="9.8" height="9.8"/>
<rect x="755" y="548.6" class="st0" width="9.8" height="9.8"/>
<path class="st0" d="M481.6,1072.8h9.5v30.4h-9.5V1072.8z"/>
<path class="st0" d="M501.9,1083.1v9.5h-31.2v-9.5H501.9z"/>
<path class="st0" d="M1299.9,1027.8h9.5v30.4h-9.5V1027.8z"/>
<path class="st0" d="M1320.2,1038.1v9.5H1289v-9.5H1320.2z"/>
<path class="st0" d="M776,1060.8h24.8v10.7H776V1060.8z"/>
<path class="st0" d="M790,1087.5v-24.7h10.7v24.7H790z"/>
<path class="st1" d="M331.8,1140.6c0,8.2-6.6,14.8-14.8,14.8c-8.2,0-14.8-6.6-14.8-14.8c0-8.1,6.6-14.8,14.8-14.8
	C325.2,1125.8,331.8,1132.4,331.8,1140.6z"/>
<path class="st0" d="M682.8,1088.5H658v-10.7h24.8V1088.5z"/>
<path class="st0" d="M668.7,1061.8v24.7H658v-24.7H668.7z"/>
<path class="st1" d="M1105.8,1222.8c0,8.2-6.6,14.8-14.8,14.8c-8.2,0-14.8-6.6-14.8-14.8c0-8.1,6.6-14.8,14.8-14.8
	C1099.2,1208.1,1105.8,1214.7,1105.8,1222.8z"/>
<path class="st0" d="M210.8,1121.5H186v-10.7h24.8V1121.5z"/>
<path class="st0" d="M196.7,1094.8v24.7H186v-24.7H196.7z"/>
<path class="st0" d="M921.8,1242.5H897v-10.7h24.8V1242.5z"/>
<path class="st0" d="M907.7,1215.8v24.7H897v-24.7H907.7z"/>
<rect x="1213" y="1154.8" transform="matrix(0.7071 -0.7071 0.7071 0.7071 -460.0466 1208.3611)" class="st0" width="31.2" height="9.5"/>
<rect x="482.6" y="1227.5" transform="matrix(0.7071 -0.7071 0.7071 0.7071 -736.2849 708.738)" class="st0" width="9.5" height="31.2"/>
<rect x="1066.2" y="1071.8" class="st0" width="9.8" height="9.8"/>
<rect x="1076" y="1081.6" class="st0" width="9.8" height="9.8"/>
<rect x="1085.8" y="1071.8" class="st0" width="9.8" height="9.8"/>
<rect x="1095.6" y="1081.6" class="st0" width="9.8" height="9.8"/>
<rect x="1105.4" y="1071.8" class="st0" width="9.8" height="9.8"/>
<rect x="1115.2" y="1081.6" class="st0" width="9.8" height="9.8"/>
<rect x="706" y="1220.8" class="st0" width="9.8" height="9.8"/>
<rect x="715.8" y="1230.6" class="st0" width="9.8" height="9.8"/>
<rect x="725.6" y="1220.8" class="st0" width="9.8" height="9.8"/>
<rect x="735.4" y="1230.6" class="st0" width="9.8" height="9.8"/>
<rect x="745.2" y="1220.8" class="st0" width="9.8" height="9.8"/>
<rect x="755" y="1230.6" class="st0" width="9.8" height="9.8"/>
<path class="st0" d="M991.6,946.5h-9.5v-30.4h9.5V946.5z"/>
<path class="st0" d="M971.3,936.2v-9.5h31.2v9.5H971.3z"/>
<path class="st0" d="M101.3,853.5h-9.5v-30.4h9.5V853.5z"/>
<path class="st0" d="M81,843.2v-9.5h31.2v9.5H81z"/>
<path class="st0" d="M697.2,958.5h-24.8v-10.7h24.8V958.5z"/>
<path class="st0" d="M683.2,931.8v24.7h-10.7v-24.7H683.2z"/>
<path class="st1" d="M1141.3,878.7c0-8.2,6.6-14.8,14.8-14.8c8.2,0,14.8,6.6,14.8,14.8c0,8.2-6.6,14.8-14.8,14.8
	C1148,893.5,1141.3,886.8,1141.3,878.7z"/>
<path class="st1" d="M1328.3,818.4c0-8.2,6.6-14.8,14.8-14.8c8.2,0,14.8,6.6,14.8,14.8c0,8.2-6.6,14.8-14.8,14.8
	C1335,833.2,1328.3,826.6,1328.3,818.4z"/>
<path class="st0" d="M790.4,930.8h24.8v10.7h-24.8V930.8z"/>
<path class="st0" d="M804.5,957.5v-24.7h10.7v24.7H804.5z"/>
<path class="st1" d="M339.9,796.7c0-8.2,6.6-14.8,14.8-14.8c8.2,0,14.8,6.6,14.8,14.8c0,8.2-6.6,14.8-14.8,14.8
	C346.5,811.4,339.9,804.8,339.9,796.7z"/>
<path class="st0" d="M1262.4,897.8h24.8v10.7h-24.8V897.8z"/>
<path class="st0" d="M1276.5,924.5v-24.7h10.7v24.7H1276.5z"/>
<path class="st0" d="M551.4,776.8h24.8v10.7h-24.8V776.8z"/>
<path class="st0" d="M565.5,803.5v-24.7h10.7v24.7H565.5z"/>
<rect x="229" y="855.1" transform="matrix(0.7071 -0.7071 0.7071 0.7071 -536.3215 424.7853)" class="st0" width="31.2" height="9.5"/>
<rect x="981.1" y="760.5" transform="matrix(0.7071 -0.7071 0.7071 0.7071 -260.0781 924.4087)" class="st0" width="9.5" height="31.2"/>
<rect x="397.2" y="937.7" class="st0" width="9.8" height="9.8"/>
<rect x="387.4" y="927.9" class="st0" width="9.8" height="9.8"/>
<rect x="377.6" y="937.7" class="st0" width="9.8" height="9.8"/>
<rect x="367.8" y="927.9" class="st0" width="9.8" height="9.8"/>
<rect x="358" y="937.7" class="st0" width="9.8" height="9.8"/>
<rect x="348.2" y="927.9" class="st0" width="9.8" height="9.8"/>
<rect x="757.4" y="788.7" class="st0" width="9.8" height="9.8"/>
<rect x="747.6" y="778.9" class="st0" width="9.8" height="9.8"/>
<rect x="737.8" y="788.7" class="st0" width="9.8" height="9.8"/>
<rect x="728" y="778.9" class="st0" width="9.8" height="9.8"/>
<rect x="718.2" y="788.7" class="st0" width="9.8" height="9.8"/>
<rect x="708.4" y="778.9" class="st0" width="9.8" height="9.8"/>
<path class="st0" d="M991.6,215.5h-9.5v-30.4h9.5V215.5z"/>
<path class="st0" d="M971.3,205.2v-9.5h31.2v9.5H971.3z"/>
<path class="st0" d="M101.3,122.5h-9.5V92.2h9.5V122.5z"/>
<path class="st0" d="M81,112.2v-9.5h31.2v9.5H81z"/>
<path class="st0" d="M697.2,227.5h-24.8v-10.7h24.8V227.5z"/>
<path class="st0" d="M683.2,200.8v24.7h-10.7v-24.7H683.2z"/>
<path class="st1" d="M1141.3,147.7c0-8.2,6.6-14.8,14.8-14.8c8.2,0,14.8,6.6,14.8,14.8c0,8.2-6.6,14.8-14.8,14.8
	C1148,162.5,1141.3,155.8,1141.3,147.7z"/>
<path class="st1" d="M1328.3,87.4c0-8.2,6.6-14.8,14.8-14.8c8.2,0,14.8,6.6,14.8,14.8s-6.6,14.8-14.8,14.8
	C1335,102.2,1328.3,95.6,1328.3,87.4z"/>
<path class="st0" d="M790.4,199.8h24.8v10.7h-24.8V199.8z"/>
<path class="st0" d="M804.5,226.5v-24.7h10.7v24.7H804.5z"/>
<path class="st1" d="M339.9,65.7c0-8.2,6.6-14.8,14.8-14.8c8.2,0,14.8,6.6,14.8,14.8s-6.6,14.8-14.8,14.8
	C346.5,80.4,339.9,73.8,339.9,65.7z"/>
<path class="st0" d="M1262.4,166.8h24.8v10.7h-24.8V166.8z"/>
<path class="st0" d="M1276.5,193.5v-24.7h10.7v24.7H1276.5z"/>
<path class="st0" d="M551.4,45.8h24.8v10.7h-24.8V45.8z"/>
<path class="st0" d="M565.5,72.5V47.8h10.7v24.7H565.5z"/>
<rect x="229" y="124.1" transform="matrix(0.7071 -0.7071 0.7071 0.7071 -19.4265 210.6803)" class="st0" width="31.2" height="9.5"/>
<rect x="981.1" y="29.5" transform="matrix(0.7071 -0.7071 0.7071 0.7071 256.8174 710.3035)" class="st0" width="9.5" height="31.2"/>
<rect x="397.2" y="206.7" class="st0" width="9.8" height="9.8"/>
<rect x="387.4" y="196.9" class="st0" width="9.8" height="9.8"/>
<rect x="377.6" y="206.7" class="st0" width="9.8" height="9.8"/>
<rect x="367.8" y="196.9" class="st0" width="9.8" height="9.8"/>
<rect x="358" y="206.7" class="st0" width="9.8" height="9.8"/>
<rect x="348.2" y="196.9" class="st0" width="9.8" height="9.8"/>
<rect x="757.4" y="57.7" class="st0" width="9.8" height="9.8"/>
<rect x="747.6" y="47.9" class="st0" width="9.8" height="9.8"/>
<rect x="737.8" y="57.7" class="st0" width="9.8" height="9.8"/>
<rect x="728" y="47.9" class="st0" width="9.8" height="9.8"/>
<rect x="718.2" y="57.7" class="st0" width="9.8" height="9.8"/>
<rect x="708.4" y="47.9" class="st0" width="9.8" height="9.8"/>
</svg>
