<?xml version="1.0" encoding="utf-8"?>
<!-- Generator: Adobe Illustrator 24.1.1, SVG Export Plug-In . SVG Version: 6.00 Build 0)  -->
<svg version="1.1" id="Слой_1" xmlns="http://www.w3.org/2000/svg" xmlns:xlink="http://www.w3.org/1999/xlink" x="0px" y="0px"
	 viewBox="0 0 1430.1 942.1" style="enable-background:new 0 0 1430.1 942.1;" xml:space="preserve">
<style type="text/css">
	.st0{fill:none;stroke:#FFDF51;stroke-width:8.636;}
	.st1{fill:#FC4A3F;}
	.st2{fill:#FFDF51;}
	.st3{fill:#91E465;}
	.st4{fill:none;stroke:#009FD6;stroke-width:8.636;}
	.st5{fill:#009FD6;}
</style>
<path class="st0" d="M1236.7,228.2c0-8.2,6.6-14.8,14.8-14.8c8.2,0,14.8,6.6,14.8,14.8c0,8.2-6.6,14.8-14.8,14.8
	C1243.3,243,1236.7,236.3,1236.7,228.2z"/>
<path class="st1" d="M707.4,867.6h9.5v30.4h-9.5V867.6z"/>
<path class="st1" d="M727.8,877.9v9.5h-31.2v-9.5H727.8z"/>
<path class="st2" d="M42.8,767.4h24.8v10.7H42.8V767.4z"/>
<path class="st2" d="M56.8,794.1v-24.7h10.7v24.7H56.8z"/>
<path class="st3" d="M1227.6,806h24.8v10.7h-24.8V806z"/>
<path class="st3" d="M1241.6,832.7V808h10.7v24.7H1241.6z"/>
<path class="st0" d="M193,833.8c0,8.2-6.6,14.8-14.8,14.8c-8.2,0-14.8-6.6-14.8-14.8c0-8.2,6.6-14.8,14.8-14.8
	C186.4,819.1,193,825.7,193,833.8z"/>
<path class="st2" d="M1387,294.6h-24.8v-10.7h24.8V294.6z"/>
<path class="st2" d="M1372.9,267.9v24.7h-10.8v-24.7H1372.9z"/>
<path class="st2" d="M677.3,62.3h-24.8V51.6h24.8V62.3z"/>
<path class="st2" d="M663.3,35.6v24.7h-10.7V35.6H663.3z"/>
<path class="st3" d="M244.7,796.1h-24.8v-10.7h24.8V796.1z"/>
<path class="st3" d="M230.7,769.3V794h-10.7v-24.7H230.7z"/>
<path class="st1" d="M80.3,508.3H55.6v-10.7h24.8V508.3z"/>
<path class="st1" d="M66.3,481.6v24.7H55.6v-24.7H66.3z"/>
<path class="st4" d="M1377.8,872.4c0,8.2-6.6,14.8-14.8,14.8s-14.8-6.6-14.8-14.8c0-8.2,6.6-14.8,14.8-14.8
	S1377.8,864.2,1377.8,872.4z"/>
<path class="st3" d="M1338.6,62.6h24.8v10.7h-24.8V62.6z"/>
<path class="st3" d="M1352.6,89.3V64.6h10.7v24.7H1352.6z"/>
<rect x="125.9" y="683" class="st5" width="9.8" height="9.8"/>
<rect x="135.7" y="692.8" class="st5" width="9.8" height="9.8"/>
<rect x="145.5" y="683" class="st5" width="9.8" height="9.8"/>
<rect x="155.3" y="692.8" class="st5" width="9.8" height="9.8"/>
<rect x="165.1" y="683" class="st5" width="9.8" height="9.8"/>
<rect x="174.9" y="692.8" class="st5" width="9.8" height="9.8"/>
<rect x="1310.7" y="721.6" class="st2" width="9.8" height="9.8"/>
<rect x="1320.5" y="731.3" class="st2" width="9.8" height="9.8"/>
<rect x="1330.3" y="721.6" class="st2" width="9.8" height="9.8"/>
<rect x="1340.1" y="731.3" class="st2" width="9.8" height="9.8"/>
<rect x="1349.9" y="721.6" class="st2" width="9.8" height="9.8"/>
<rect x="1359.7" y="731.3" class="st2" width="9.8" height="9.8"/>
<path class="st1" d="M1165.3,666.3h-24.8v-10.7h24.8V666.3z"/>
<path class="st1" d="M1151.3,639.6v24.7h-10.7v-24.7H1151.3z"/>
<rect x="1262.3" y="642.6" class="st5" width="31.2" height="9.5"/>
<path class="st4" d="M51.9,189.6c0-8.2,6.6-14.8,14.8-14.8s14.8,6.6,14.8,14.8c0,8.2-6.6,14.8-14.8,14.8S51.9,197.8,51.9,189.6z"/>
<rect x="1315.5" y="368.3" class="st5" width="9.8" height="9.8"/>
<rect x="1305.7" y="358.6" class="st5" width="9.8" height="9.8"/>
<rect x="1295.9" y="368.3" class="st5" width="9.8" height="9.8"/>
<rect x="1286.1" y="358.6" class="st5" width="9.8" height="9.8"/>
<rect x="1276.3" y="368.3" class="st5" width="9.8" height="9.8"/>
<rect x="1266.6" y="358.6" class="st5" width="9.8" height="9.8"/>
<rect x="109.2" y="330.7" class="st2" width="9.8" height="9.8"/>
<rect x="99.4" y="320.9" class="st2" width="9.8" height="9.8"/>
<rect x="89.6" y="330.7" class="st2" width="9.8" height="9.8"/>
<rect x="79.8" y="320.9" class="st2" width="9.8" height="9.8"/>
<rect x="70" y="330.7" class="st2" width="9.8" height="9.8"/>
<rect x="60.2" y="320.9" class="st2" width="9.8" height="9.8"/>
<path class="st3" d="M288.6,35.6h24.8v10.7h-24.8V35.6z"/>
<path class="st3" d="M302.6,62.3V37.6h10.7v24.7H302.6z"/>
<rect x="136.2" y="409.9" class="st5" width="31.2" height="9.5"/>
<rect x="973.3" y="43.2" transform="matrix(0.7071 -0.7071 0.7071 0.7071 255.7579 713.3203)" class="st5" width="31.2" height="9.5"/>
</svg>
