<svg width="91" height="38" viewBox="0 0 91 38" fill="none" xmlns="http://www.w3.org/2000/svg">
<path d="M25.5015 5.45704H35.9122L39.5409 8.98565V12.4892L35.9122 15.9177H28.9801V19.4464H39.5409V22.975H25.5015V15.9177L28.9801 12.4892H35.9122V8.98565H25.5015V5.45704ZM55.9051 8.98565V19.4464L52.5016 22.975H45.4444L42.0409 19.4464V8.98565L45.4444 5.45704H52.5016L55.9051 8.98565ZM52.5016 19.4464V8.98565H45.4444V19.4464H52.5016ZM58.6654 5.45704H69.076L72.7048 8.98565V12.4892L69.076 15.9177H62.1439V19.4464H72.7048V22.975H58.6654V15.9177L62.1439 12.4892H69.076V8.98565H58.6654V5.45704ZM75.2048 5.45704H78.6583V12.4892H85.5404V5.45704H89.094V22.975H85.5404V15.9177H78.6583L75.2048 12.4892V5.45704Z" fill="white"/>
<path d="M6.97053 14.6844V18.4926H5.81445V8.97203C6.24968 8.97203 6.70758 8.96749 7.18814 8.95842C7.66871 8.94936 8.06313 8.94482 8.37142 8.94482C10.6292 8.94482 11.758 9.88782 11.758 11.7738C11.758 12.4811 11.554 13.0704 11.146 13.5419C10.7652 14.0044 10.2801 14.3126 9.6907 14.4668L12.8597 18.4926H11.4452L8.52103 14.6844H6.97053ZM8.30341 10.0329C8.21274 10.0329 7.76845 10.042 6.97053 10.0601V13.5963H8.37142C8.96079 13.5963 9.46402 13.4331 9.88112 13.1067C10.3163 12.7621 10.534 12.3224 10.534 11.7874C10.534 10.6177 9.79044 10.0329 8.30341 10.0329Z" fill="white"/>
<circle cx="8.7206" cy="13.6679" r="8.37177" stroke="white" stroke-width="0.697648"/>
</svg>
