<svg width="1057" height="178" viewBox="0 0 1057 178" fill="none" xmlns="http://www.w3.org/2000/svg">
<path d="M295.583 1H305.055V31.3652H295.583V1Z" fill="#009FD6"/>
<path d="M315.92 11.3074V20.7791H284.719L284.719 11.3074L315.92 11.3074Z" fill="#009FD6"/>
<path d="M758.865 129H768.336V159.365H758.865V129Z" fill="#009FD6"/>
<path d="M779.201 139.307V148.779H748L748 139.307L779.201 139.307Z" fill="#009FD6"/>
<path d="M590 16H614.794V26.6974H590V16Z" fill="#009FD6"/>
<path d="M604.05 42.7436L604.05 18.0572L614.794 18.0572L614.794 42.7436H604.05Z" fill="#009FD6"/>
<path d="M145.847 68.8342C145.847 76.9885 139.237 83.5989 131.083 83.5989C122.928 83.5989 116.318 76.9885 116.318 68.8342C116.318 60.6798 122.928 54.0694 131.083 54.0694C139.237 54.0694 145.847 60.6798 145.847 68.8342Z" fill="#009FD6" stroke="#009FD6" stroke-width="8.63596"/>
<path d="M496.793 46.7437L471.999 46.7437L471.999 36.0462L496.793 36.0462L496.793 46.7437Z" fill="#009FD6"/>
<path d="M482.743 20L482.743 44.6864L471.999 44.6864L471.999 20L482.743 20Z" fill="#009FD6"/>
<path d="M947.295 150.851C947.295 159.005 940.684 165.615 932.53 165.615C924.376 165.615 917.765 159.005 917.765 150.851C917.765 142.696 924.376 136.086 932.53 136.086C940.684 136.086 947.295 142.696 947.295 150.851Z" fill="#009FD6" stroke="#009FD6" stroke-width="8.63596"/>
<path d="M24.793 49.7437L-0.000598907 49.7437L-0.000597972 39.0462L24.793 39.0462L24.793 49.7437Z" fill="#009FD6"/>
<path d="M10.7433 23L10.7433 47.6864L-0.00059682 47.6864L-0.000596569 23L10.7433 23Z" fill="#009FD6"/>
<rect x="1050.28" y="73.356" width="9.4717" height="31.2009" transform="rotate(45 1050.28 73.356)" fill="#009FD6"/>
<rect x="115.76" y="171.062" width="9.4717" height="31.2009" transform="rotate(135 115.76 171.062)" fill="#009FD6"/>
<rect x="880.176" width="9.79671" height="9.79671" fill="#009FD6"/>
<rect x="889.973" y="9.79639" width="9.79671" height="9.79671" fill="#009FD6"/>
<rect x="899.77" width="9.79671" height="9.79671" fill="#009FD6"/>
<rect x="909.566" y="9.79639" width="9.79671" height="9.79671" fill="#009FD6"/>
<rect x="919.363" width="9.79671" height="9.79671" fill="#009FD6"/>
<rect x="929.16" y="9.79639" width="9.79671" height="9.79671" fill="#009FD6"/>
<rect x="257" y="132" width="9.79671" height="9.79671" fill="#009FD6"/>
<rect x="266.797" y="141.796" width="9.79671" height="9.79671" fill="#009FD6"/>
<rect x="276.594" y="132" width="9.79671" height="9.79671" fill="#009FD6"/>
<rect x="286.391" y="141.796" width="9.79671" height="9.79671" fill="#009FD6"/>
<rect x="296.188" y="132" width="9.79671" height="9.79671" fill="#009FD6"/>
<rect x="305.984" y="141.796" width="9.79671" height="9.79671" fill="#009FD6"/>
</svg>
