<?xml version="1.0" encoding="utf-8"?>
<!-- Generator: Adobe Illustrator 24.1.1, SVG Export Plug-In . SVG Version: 6.00 Build 0)  -->
<svg version="1.1" id="Слой_1" xmlns="http://www.w3.org/2000/svg" xmlns:xlink="http://www.w3.org/1999/xlink" x="0px" y="0px"
	 viewBox="0 0 669.3 405" style="enable-background:new 0 0 669.3 405;" xml:space="preserve">
<style type="text/css">
	.st0{fill:#24C2F9;}
	.st1{fill:#FFDD71;}
	.st2{fill:none;stroke:#FFFFFF;}
</style>
<path d="M4.2,23.6h0.2c1.2,0,2.1,0.4,2.8,1.1s1.1,1.6,1.1,2.8c0,1.1-0.4,2-1.1,2.8c-0.7,0.7-1.7,1.1-2.8,1.1c-1.2,0-2.1-0.4-2.9-1.1
	c-0.7-0.7-1.1-1.6-1.1-2.8c0-0.9,0.2-1.6,0.7-2.3l3.6-5.3h2.1L4.2,23.6z M4.4,29.5c0.6,0,1.1-0.2,1.5-0.6s0.6-0.9,0.6-1.5
	s-0.2-1.1-0.6-1.5S5,25.3,4.4,25.3s-1.2,0.2-1.6,0.6s-0.6,0.9-0.6,1.5s0.2,1.1,0.6,1.5S3.7,29.5,4.4,29.5z M17.5,29.6
	c-0.8,1.1-1.8,1.6-3.2,1.6s-2.5-0.5-3.2-1.6c-0.8-1.1-1.2-2.5-1.2-4.2s0.4-3.2,1.2-4.2c0.8-1.1,1.9-1.6,3.2-1.6
	c1.4,0,2.5,0.5,3.2,1.6c0.8,1,1.2,2.5,1.2,4.2S18.2,28.6,17.5,29.6z M14.2,29.4c0.8,0,1.5-0.3,1.9-1c0.4-0.7,0.7-1.7,0.7-3
	s-0.2-2.3-0.7-3c-0.4-0.7-1.1-1-1.9-1c-0.8,0-1.5,0.3-1.9,1s-0.7,1.7-0.7,3s0.2,2.3,0.7,3C12.8,29.1,13.4,29.4,14.2,29.4z M28,29.6
	c-0.8,1.1-1.8,1.6-3.2,1.6c-1.4,0-2.5-0.5-3.2-1.6c-0.8-1.1-1.2-2.5-1.2-4.2s0.4-3.2,1.2-4.2c0.8-1.1,1.9-1.6,3.2-1.6
	c1.4,0,2.5,0.5,3.2,1.6c0.8,1,1.2,2.5,1.2,4.2S28.8,28.6,28,29.6z M24.8,29.4c0.8,0,1.5-0.3,1.9-1s0.7-1.7,0.7-3s-0.2-2.3-0.7-3
	c-0.4-0.7-1.1-1-1.9-1s-1.5,0.3-1.9,1s-0.7,1.7-0.7,3s0.2,2.3,0.7,3C23.3,29.1,24,29.4,24.8,29.4z M3,78h1.4c1.1,0,2,0.3,2.7,1
	c0.7,0.6,1.1,1.5,1.1,2.6s-0.4,2-1.1,2.6s-1.7,1-2.8,1c-0.9,0-1.7-0.2-2.4-0.6s-1.2-1-1.4-1.8l1.6-0.9c0.3,1,1.1,1.5,2.2,1.5
	c0.6,0,1.1-0.2,1.5-0.5s0.6-0.8,0.6-1.3s-0.2-1-0.6-1.3s-0.9-0.5-1.5-0.5H1.1l0.4-6h6.2v1.7H3.2L3,78z M17.2,83.6
	c-0.8,1.1-1.8,1.6-3.2,1.6s-2.5-0.5-3.2-1.6c-0.8-1.1-1.2-2.5-1.2-4.2s0.4-3.2,1.2-4.2c0.8-1.1,1.9-1.6,3.2-1.6
	c1.4,0,2.5,0.5,3.2,1.6c0.8,1,1.2,2.5,1.2,4.2S18,82.6,17.2,83.6z M14,83.4c0.8,0,1.5-0.3,1.9-1s0.7-1.7,0.7-3s-0.2-2.3-0.7-3
	c-0.4-0.7-1.1-1-1.9-1c-0.8,0-1.5,0.3-1.9,1s-0.7,1.7-0.7,3s0.2,2.3,0.7,3C12.5,83.1,13.2,83.4,14,83.4z M27.8,83.6
	c-0.8,1.1-1.8,1.6-3.2,1.6c-1.4,0-2.5-0.5-3.2-1.6c-0.8-1.1-1.2-2.5-1.2-4.2s0.4-3.2,1.2-4.2c0.8-1.1,1.9-1.6,3.2-1.6
	c1.4,0,2.5,0.5,3.2,1.6c0.8,1,1.2,2.5,1.2,4.2S28.6,82.6,27.8,83.6z M24.5,83.4c0.8,0,1.5-0.3,1.9-1s0.7-1.7,0.7-3s-0.2-2.3-0.7-3
	c-0.4-0.7-1.1-1-1.9-1s-1.5,0.3-1.9,1s-0.7,1.7-0.7,3s0.2,2.3,0.7,3S23.7,83.4,24.5,83.4z M7.7,135.3H9v1.7H7.7v2H5.9v-2H0.4v-1.7
	l3.9-7.5h2l-3.9,7.5h3.5v-2.9h1.9v2.9H7.7z M18,137.6c-0.8,1.1-1.8,1.6-3.2,1.6s-2.5-0.5-3.2-1.6c-0.8-1.1-1.2-2.5-1.2-4.2
	c0-1.8,0.4-3.2,1.2-4.2c0.8-1.1,1.9-1.6,3.2-1.6c1.4,0,2.5,0.5,3.2,1.6c0.8,1,1.2,2.5,1.2,4.2C19.2,135.2,18.8,136.6,18,137.6z
	 M14.8,137.4c0.8,0,1.5-0.3,1.9-1c0.4-0.7,0.7-1.7,0.7-3s-0.2-2.3-0.7-3c-0.4-0.7-1.1-1-1.9-1c-0.8,0-1.5,0.3-1.9,1s-0.7,1.7-0.7,3
	s0.2,2.3,0.7,3C13.3,137.1,14,137.4,14.8,137.4z M28.6,137.6c-0.8,1.1-1.8,1.6-3.2,1.6c-1.4,0-2.5-0.5-3.2-1.6
	c-0.8-1.1-1.2-2.5-1.2-4.2c0-1.8,0.4-3.2,1.2-4.2c0.8-1.1,1.9-1.6,3.2-1.6c1.4,0,2.5,0.5,3.2,1.6c0.8,1,1.2,2.5,1.2,4.2
	C29.8,135.2,29.4,136.6,28.6,137.6z M25.4,137.4c0.8,0,1.5-0.3,1.9-1s0.7-1.7,0.7-3s-0.2-2.3-0.7-3c-0.4-0.7-1.1-1-1.9-1
	s-1.5,0.3-1.9,1s-0.7,1.7-0.7,3s0.2,2.3,0.7,3C23.9,137.1,24.5,137.4,25.4,137.4z M7.6,183.4l-2.3,3c0.8,0.2,1.5,0.6,2,1.2
	c0.5,0.6,0.8,1.3,0.8,2.1c0,1.1-0.4,2-1.1,2.6s-1.7,1-2.8,1c-0.9,0-1.6-0.2-2.3-0.6c-0.7-0.4-1.2-1-1.4-1.7l1.5-1
	c0.3,1,1.1,1.4,2.2,1.4c0.6,0,1.1-0.2,1.5-0.5s0.6-0.8,0.6-1.3c0-0.6-0.2-1-0.6-1.3s-0.9-0.5-1.5-0.5H3.7L3,186.7l2.4-3.2H0.7v-1.7
	h6.9V183.4z M17.4,191.6c-0.8,1.1-1.8,1.6-3.2,1.6s-2.5-0.5-3.2-1.6c-0.8-1.1-1.2-2.5-1.2-4.2c0-1.8,0.4-3.2,1.2-4.2
	c0.8-1.1,1.9-1.6,3.2-1.6c1.4,0,2.5,0.5,3.2,1.6c0.8,1,1.2,2.5,1.2,4.2C18.6,189.2,18.2,190.6,17.4,191.6z M14.2,191.4
	c0.8,0,1.5-0.3,1.9-1c0.4-0.7,0.7-1.7,0.7-3s-0.2-2.3-0.7-3c-0.4-0.7-1.1-1-1.9-1c-0.8,0-1.5,0.3-1.9,1s-0.7,1.7-0.7,3
	s0.2,2.3,0.7,3C12.7,191.1,13.3,191.4,14.2,191.4z M28,191.6c-0.8,1.1-1.8,1.6-3.2,1.6c-1.4,0-2.5-0.5-3.2-1.6
	c-0.8-1.1-1.2-2.5-1.2-4.2c0-1.8,0.4-3.2,1.2-4.2c0.8-1.1,1.9-1.6,3.2-1.6c1.4,0,2.5,0.5,3.2,1.6c0.8,1,1.2,2.5,1.2,4.2
	C29.1,189.2,28.7,190.6,28,191.6z M24.7,191.4c0.8,0,1.5-0.3,1.9-1s0.7-1.7,0.7-3s-0.2-2.3-0.7-3c-0.4-0.7-1.1-1-1.9-1
	s-1.5,0.3-1.9,1s-0.7,1.7-0.7,3s0.2,2.3,0.7,3C23.3,191.1,23.9,191.4,24.7,191.4z M7.9,247H0.5v-1.4l3.9-4c0.9-0.9,1.4-1.8,1.4-2.5
	c0-0.5-0.2-1-0.5-1.3s-0.7-0.5-1.2-0.5c-0.9,0-1.6,0.5-2.1,1.4l-1.6-0.9c0.3-0.7,0.8-1.3,1.5-1.7c0.6-0.4,1.4-0.6,2.1-0.6
	c1,0,1.8,0.3,2.5,0.9c0.7,0.6,1.1,1.5,1.1,2.5c0,1.1-0.6,2.3-1.9,3.6L3.2,245h4.6L7.9,247L7.9,247z M17.1,245.6
	c-0.8,1.1-1.8,1.6-3.2,1.6s-2.5-0.5-3.2-1.6c-0.8-1.1-1.2-2.5-1.2-4.2c0-1.8,0.4-3.2,1.2-4.2c0.8-1.1,1.9-1.6,3.2-1.6
	c1.4,0,2.5,0.5,3.2,1.6c0.8,1,1.2,2.5,1.2,4.2C18.2,243.2,17.8,244.6,17.1,245.6z M13.8,245.4c0.8,0,1.5-0.3,1.9-1
	c0.4-0.7,0.7-1.7,0.7-3s-0.2-2.3-0.7-3c-0.4-0.7-1.1-1-1.9-1c-0.8,0-1.5,0.3-1.9,1s-0.7,1.7-0.7,3s0.2,2.3,0.7,3
	C12.4,245.1,13,245.4,13.8,245.4z M27.6,245.6c-0.8,1.1-1.8,1.6-3.2,1.6c-1.4,0-2.5-0.5-3.2-1.6c-0.8-1.1-1.2-2.5-1.2-4.2
	c0-1.8,0.4-3.2,1.2-4.2c0.8-1.1,1.9-1.6,3.2-1.6c1.4,0,2.5,0.5,3.2,1.6c0.8,1,1.2,2.5,1.2,4.2C28.8,243.2,28.4,244.6,27.6,245.6z
	 M24.4,245.4c0.8,0,1.5-0.3,1.9-1s0.7-1.7,0.7-3s-0.2-2.3-0.7-3c-0.4-0.7-1.1-1-1.9-1s-1.5,0.3-1.9,1s-0.7,1.7-0.7,3s0.2,2.3,0.7,3
	C22.9,245.1,23.6,245.4,24.4,245.4z M0.2,290.8l2.9-1h1.6V301H2.9v-9.2l-2.3,0.6L0.2,290.8z M14.7,299.6c-0.8,1.1-1.8,1.6-3.2,1.6
	s-2.5-0.5-3.2-1.6c-0.8-1.1-1.2-2.5-1.2-4.2c0-1.8,0.4-3.2,1.2-4.2c0.8-1.1,1.9-1.6,3.2-1.6c1.4,0,2.5,0.5,3.2,1.6
	c0.8,1,1.2,2.5,1.2,4.2S15.5,298.6,14.7,299.6z M11.5,299.4c0.8,0,1.5-0.3,1.9-1s0.7-1.7,0.7-3s-0.2-2.3-0.7-3c-0.4-0.7-1.1-1-1.9-1
	c-0.8,0-1.5,0.3-1.9,1s-0.7,1.7-0.7,3s0.2,2.3,0.7,3C10,299.1,10.7,299.4,11.5,299.4z M25.3,299.6c-0.8,1.1-1.8,1.6-3.2,1.6
	c-1.4,0-2.5-0.5-3.2-1.6c-0.8-1.1-1.2-2.5-1.2-4.2c0-1.8,0.4-3.2,1.2-4.2c0.8-1.1,1.9-1.6,3.2-1.6c1.4,0,2.5,0.5,3.2,1.6
	c0.8,1,1.2,2.5,1.2,4.2S26,298.6,25.3,299.6z M22,299.4c0.8,0,1.5-0.3,1.9-1s0.7-1.7,0.7-3s-0.2-2.3-0.7-3c-0.4-0.7-1.1-1-1.9-1
	s-1.5,0.3-1.9,1s-0.7,1.7-0.7,3s0.2,2.3,0.7,3S21.2,299.4,22,299.4z M8.3,353.6c-0.8,1.1-1.8,1.6-3.2,1.6s-2.5-0.5-3.2-1.6
	c-0.8-1.1-1.2-2.5-1.2-4.2c0-1.8,0.4-3.2,1.2-4.2c0.8-1.1,1.9-1.6,3.2-1.6c1.4,0,2.5,0.5,3.2,1.6c0.8,1,1.2,2.5,1.2,4.2
	S9.1,352.6,8.3,353.6z M5,353.4c0.8,0,1.5-0.3,1.9-1s0.7-1.7,0.7-3s-0.2-2.3-0.7-3c-0.4-0.7-1.1-1-1.9-1s-1.5,0.3-1.9,1
	s-0.7,1.7-0.7,3s0.2,2.3,0.7,3S4.2,353.4,5,353.4z"/>
<polygon points="63.3,378.1 66.1,377.3 67.7,377.3 67.7,386.1 65.9,386.1 65.9,378.9 63.7,379.4 "/>
<path d="M150.3,386.1h-7.1V385l3.8-3.1c0.9-0.7,1.4-1.4,1.4-2c0-0.4-0.1-0.8-0.5-1s-0.6-0.4-1.2-0.4c-0.9,0-1.6,0.4-2.1,1.1
	l-1.6-0.7c0.4-0.5,0.8-1,1.4-1.3c0.6-0.3,1.3-0.5,2.1-0.5c0.9,0,1.8,0.2,2.5,0.7s1,1.2,1,2c0,0.9-0.6,1.8-1.8,2.8l-2.5,2h4.5
	L150.3,386.1L150.3,386.1z"/>
<path d="M232.5,378.3l-2.2,2.4c0.8,0.2,1.4,0.5,1.9,0.9c0.5,0.5,0.8,1,0.8,1.6c0,0.9-0.4,1.6-1,2c-0.8,0.5-1.7,0.8-2.7,0.8
	c-0.9,0-1.6-0.2-2.2-0.5c-0.6-0.3-1.2-0.8-1.4-1.3l1.6-0.7c0.3,0.8,1,1.1,2.1,1.1c0.6,0,1.2-0.2,1.4-0.4c0.4-0.2,0.5-0.6,0.5-1
	s-0.1-0.8-0.5-1s-0.9-0.4-1.4-0.4H229l-0.6-0.9l2.3-2.5H226v-1.3h6.6v1.2L232.5,378.3L232.5,378.3z"/>
<polygon points="315.1,383.1 316.4,383.1 316.4,384.4 315.1,384.4 315.1,386 313.3,386 313.3,384.4 308,384.4 308,383.1 
	311.8,377.2 313.7,377.2 309.9,383.1 313.3,383.1 313.3,380.8 315.1,380.8 "/>
<path d="M393.7,380.4h1.4c1,0,1.9,0.2,2.6,0.8c0.6,0.5,1,1.2,1,2c0,0.9-0.4,1.6-1,2c-0.8,0.5-1.7,0.8-2.7,0.8
	c-0.9,0-1.7-0.2-2.3-0.5c-0.6-0.3-1.2-0.8-1.4-1.4l1.6-0.7c0.3,0.8,1,1.2,2.2,1.2c0.6,0,1-0.2,1.4-0.4c0.4-0.2,0.5-0.6,0.5-1
	s-0.1-0.8-0.5-1s-0.8-0.4-1.4-0.4H392l0.4-4.7h6.1v1.3H394L393.7,380.4z"/>
<path d="M477.4,380h0.3c1.2,0,2.1,0.3,2.7,0.9c0.6,0.5,1,1.3,1,2.2c0,0.9-0.4,1.6-1,2.2c-0.6,0.5-1.7,0.9-2.7,0.9
	c-1.2,0-2.1-0.3-2.7-0.9c-0.6-0.5-1-1.3-1-2.2c0-0.7,0.3-1.3,0.6-1.8l3.5-4.2h2.1L477.4,380z"/>
<path class="st0" d="M477.7,384.6c0.6,0,1-0.2,1.4-0.5s0.5-0.7,0.5-1.2s-0.1-0.9-0.5-1.2c-0.4-0.3-0.9-0.5-1.4-0.5
	c-0.6,0-1.2,0.2-1.6,0.5s-0.5,0.7-0.5,1.2s0.1,0.9,0.5,1.2C476.5,384.5,477,384.6,477.7,384.6z"/>
<polygon points="558.7,378.3 558.7,376.9 565.6,376.9 565.6,378.2 561.9,385.7 560,385.7 563.8,378.3 "/>
<path d="M642.5,381.6c1,0.5,1.6,1.2,1.6,2.1c0,0.8-0.4,1.4-1,1.9s-1.6,0.7-2.7,0.7s-2.1-0.2-2.7-0.7c-0.6-0.5-1-1.1-1-1.9
	c0-0.5,0.1-0.9,0.4-1.3c0.3-0.4,0.6-0.7,1.2-0.9c-0.8-0.5-1.2-1-1.2-1.9c0-0.8,0.4-1.4,1-1.9s1.6-0.6,2.5-0.6s1.8,0.2,2.5,0.6
	c0.6,0.5,1,1.1,1,1.9S643.2,381.1,642.5,381.6z"/>
<path class="st0" d="M640.3,378.5c-0.5,0-0.9,0.1-1.2,0.3c-0.3,0.2-0.4,0.5-0.4,0.9s0.1,0.6,0.5,0.9c0.3,0.2,0.6,0.3,1.2,0.3
	c0.5,0,0.9-0.1,1.2-0.3s0.5-0.5,0.5-0.9s-0.1-0.7-0.5-0.9C641.2,378.7,640.8,378.5,640.3,378.5z"/>
<path class="st0" d="M640.3,384.9c0.6,0,1-0.2,1.4-0.4c0.4-0.2,0.5-0.5,0.5-1s-0.1-0.8-0.5-1s-0.8-0.4-1.4-0.4s-1.2,0.2-1.6,0.4
	c-0.4,0.2-0.5,0.5-0.5,1s0.1,0.8,0.5,1C639.1,384.8,639.6,384.9,640.3,384.9z"/>
<rect x="57" y="333" class="st1" width="23" height="23"/>
<rect x="135.2" y="333" class="st1" width="23" height="23"/>
<rect x="135.2" y="308" class="st1" width="23" height="23"/>
<line class="st2" x1="48.9" y1="356.4" x2="663.2" y2="356.4"/>
<line class="st2" x1="48.9" y1="301.4" x2="663.2" y2="301.4"/>
<line class="st2" x1="48.9" y1="246.4" x2="663.2" y2="246.4"/>
<line class="st2" x1="48.9" y1="191.4" x2="663.2" y2="191.4"/>
<line class="st2" x1="48.9" y1="136.4" x2="663.2" y2="136.4"/>
<line class="st2" x1="48.9" y1="81.4" x2="663.2" y2="81.4"/>
<line class="st2" x1="48.9" y1="26.4" x2="663.2" y2="26.4"/>
<rect x="300.6" y="332" class="st1" width="23" height="23"/>
<rect x="300.7" y="307" class="st1" width="23" height="23"/>
<rect x="300.7" y="282" class="st1" width="23" height="23"/>
<rect x="300.7" y="257" class="st1" width="23" height="23"/>
<rect x="217.8" y="332" class="st1" width="23" height="23"/>
<rect x="217.8" y="307" class="st1" width="23" height="23"/>
<rect x="217.8" y="282" class="st1" width="23" height="23"/>
<rect x="383.5" y="332" class="st1" width="23" height="23"/>
<rect x="383.5" y="307" class="st1" width="23" height="23"/>
<rect x="383.5" y="282" class="st1" width="23" height="23"/>
<rect x="383.5" y="257" class="st1" width="23" height="23"/>
<rect x="383.5" y="232" class="st1" width="23" height="23"/>
<rect x="383.5" y="207" class="st1" width="23" height="23"/>
<rect x="466.2" y="332" class="st1" width="23" height="23"/>
<rect x="466.2" y="307" class="st1" width="23" height="23"/>
<rect x="466.2" y="282" class="st1" width="23" height="23"/>
<rect x="466.2" y="257" class="st1" width="23" height="23"/>
<rect x="466.2" y="232" class="st1" width="23" height="23"/>
<rect x="466.2" y="207" class="st1" width="23" height="23"/>
<rect x="466.2" y="182" class="st1" width="23" height="23"/>
<rect x="550.7" y="333" class="st1" width="23" height="23"/>
<rect x="550.7" y="308" class="st1" width="23" height="23"/>
<rect x="550.7" y="283" class="st1" width="23" height="23"/>
<rect x="550.7" y="258" class="st1" width="23" height="23"/>
<rect x="550.7" y="233" class="st1" width="23" height="23"/>
<rect x="550.7" y="208" class="st1" width="23" height="23"/>
<rect x="550.7" y="183" class="st1" width="23" height="23"/>
<rect x="550.7" y="158" class="st1" width="23" height="23"/>
<rect x="550.7" y="133" class="st1" width="23" height="23"/>
<rect x="628.8" y="333.1" class="st1" width="23" height="23"/>
<rect x="628.8" y="308.1" class="st1" width="23" height="23"/>
<rect x="628.8" y="283.1" class="st1" width="23" height="23"/>
<rect x="628.8" y="258.1" class="st1" width="23" height="23"/>
<rect x="628.8" y="233.1" class="st1" width="23" height="23"/>
<rect x="628.8" y="208.1" class="st1" width="23" height="23"/>
<rect x="628.8" y="183.1" class="st1" width="23" height="23"/>
<rect x="628.8" y="158.1" class="st1" width="23" height="23"/>
<rect x="628.8" y="133.1" class="st1" width="23" height="23"/>
<rect x="628.8" y="108.1" class="st1" width="23" height="23"/>
<rect x="628.8" y="82.9" class="st1" width="23" height="23"/>
</svg>
