<svg width="1110" height="405" viewBox="0 0 1110 405" fill="none" xmlns="http://www.w3.org/2000/svg">
<path d="M4.16 23.56H4.368C5.54133 23.56 6.49067 23.9173 7.216 24.632C7.952 25.336 8.32 26.2533 8.32 27.384C8.32 28.504 7.952 29.4267 7.216 30.152C6.48 30.856 5.53067 31.208 4.368 31.208C3.19467 31.208 2.24 30.856 1.504 30.152C0.768 29.4267 0.4 28.504 0.4 27.384C0.4 26.5307 0.624 25.7787 1.072 25.128L4.624 19.8H6.72L4.16 23.56ZM4.368 29.464C4.98667 29.464 5.49333 29.2773 5.888 28.904C6.28267 28.52 6.48 28.0133 6.48 27.384C6.48 26.7547 6.28267 26.2533 5.888 25.88C5.49333 25.496 4.98667 25.304 4.368 25.304C3.728 25.304 3.21067 25.496 2.816 25.88C2.432 26.2533 2.24 26.7547 2.24 27.384C2.24 28.0133 2.432 28.52 2.816 28.904C3.21067 29.2773 3.728 29.464 4.368 29.464ZM17.4707 29.624C16.7027 30.68 15.6254 31.208 14.2387 31.208C12.8627 31.208 11.7801 30.68 10.9907 29.624C10.2227 28.568 9.83875 27.16 9.83875 25.4C9.83875 23.64 10.2227 22.232 10.9907 21.176C11.7801 20.12 12.8627 19.592 14.2387 19.592C15.6254 19.592 16.7027 20.12 17.4707 21.176C18.2494 22.2213 18.6388 23.6293 18.6388 25.4C18.6388 27.1707 18.2494 28.5787 17.4707 29.624ZM14.2387 29.416C15.0707 29.416 15.7054 29.0693 16.1427 28.376C16.5801 27.6827 16.7987 26.6907 16.7987 25.4C16.7987 24.1093 16.5801 23.1173 16.1427 22.424C15.7054 21.7307 15.0707 21.384 14.2387 21.384C13.4174 21.384 12.7827 21.7307 12.3347 22.424C11.8974 23.1173 11.6787 24.1093 11.6787 25.4C11.6787 26.6907 11.8974 27.6827 12.3347 28.376C12.7827 29.0693 13.4174 29.416 14.2387 29.416ZM28.0289 29.624C27.2609 30.68 26.1835 31.208 24.7969 31.208C23.4209 31.208 22.3382 30.68 21.5489 29.624C20.7809 28.568 20.3969 27.16 20.3969 25.4C20.3969 23.64 20.7809 22.232 21.5489 21.176C22.3382 20.12 23.4209 19.592 24.7969 19.592C26.1835 19.592 27.2609 20.12 28.0289 21.176C28.8075 22.2213 29.1969 23.6293 29.1969 25.4C29.1969 27.1707 28.8075 28.5787 28.0289 29.624ZM24.7969 29.416C25.6289 29.416 26.2635 29.0693 26.7009 28.376C27.1382 27.6827 27.3569 26.6907 27.3569 25.4C27.3569 24.1093 27.1382 23.1173 26.7009 22.424C26.2635 21.7307 25.6289 21.384 24.7969 21.384C23.9755 21.384 23.3409 21.7307 22.8929 22.424C22.4555 23.1173 22.2369 24.1093 22.2369 25.4C22.2369 26.6907 22.4555 27.6827 22.8929 28.376C23.3409 29.0693 23.9755 29.416 24.7969 29.416ZM2.992 78.024H4.4C5.46667 78.024 6.368 78.344 7.104 78.984C7.84 79.6133 8.208 80.488 8.208 81.608C8.208 82.728 7.82933 83.608 7.072 84.248C6.32533 84.888 5.39733 85.208 4.288 85.208C3.38133 85.208 2.592 85 1.92 84.584C1.248 84.168 0.768 83.576 0.48 82.808L2.064 81.896C2.37333 82.9093 3.11467 83.416 4.288 83.416C4.91733 83.416 5.41867 83.256 5.792 82.936C6.176 82.6053 6.368 82.1627 6.368 81.608C6.368 81.064 6.18133 80.632 5.808 80.312C5.43467 79.9813 4.93867 79.816 4.32 79.816H1.056L1.488 73.8H7.728V75.528H3.184L2.992 78.024ZM17.2207 83.624C16.4527 84.68 15.3754 85.208 13.9887 85.208C12.6127 85.208 11.5301 84.68 10.7407 83.624C9.97275 82.568 9.58875 81.16 9.58875 79.4C9.58875 77.64 9.97275 76.232 10.7407 75.176C11.5301 74.12 12.6127 73.592 13.9887 73.592C15.3754 73.592 16.4527 74.12 17.2207 75.176C17.9994 76.2213 18.3888 77.6293 18.3888 79.4C18.3888 81.1707 17.9994 82.5787 17.2207 83.624ZM13.9887 83.416C14.8207 83.416 15.4554 83.0693 15.8927 82.376C16.3301 81.6827 16.5487 80.6907 16.5487 79.4C16.5487 78.1093 16.3301 77.1173 15.8927 76.424C15.4554 75.7307 14.8207 75.384 13.9887 75.384C13.1674 75.384 12.5327 75.7307 12.0847 76.424C11.6474 77.1173 11.4287 78.1093 11.4287 79.4C11.4287 80.6907 11.6474 81.6827 12.0847 82.376C12.5327 83.0693 13.1674 83.416 13.9887 83.416ZM27.7789 83.624C27.0109 84.68 25.9335 85.208 24.5469 85.208C23.1709 85.208 22.0882 84.68 21.2989 83.624C20.5309 82.568 20.1469 81.16 20.1469 79.4C20.1469 77.64 20.5309 76.232 21.2989 75.176C22.0882 74.12 23.1709 73.592 24.5469 73.592C25.9335 73.592 27.0109 74.12 27.7789 75.176C28.5575 76.2213 28.9469 77.6293 28.9469 79.4C28.9469 81.1707 28.5575 82.5787 27.7789 83.624ZM24.5469 83.416C25.3789 83.416 26.0135 83.0693 26.4509 82.376C26.8882 81.6827 27.1069 80.6907 27.1069 79.4C27.1069 78.1093 26.8882 77.1173 26.4509 76.424C26.0135 75.7307 25.3789 75.384 24.5469 75.384C23.7255 75.384 23.0909 75.7307 22.6429 76.424C22.2055 77.1173 21.9869 78.1093 21.9869 79.4C21.9869 80.6907 22.2055 81.6827 22.6429 82.376C23.0909 83.0693 23.7255 83.416 24.5469 83.416ZM7.728 135.272H9.008V136.984H7.728V139H5.872V136.984H0.368V135.272L4.224 127.8H6.224L2.368 135.272H5.872V132.36H7.728V135.272ZM18.0332 137.624C17.2652 138.68 16.1879 139.208 14.8012 139.208C13.4252 139.208 12.3426 138.68 11.5532 137.624C10.7852 136.568 10.4012 135.16 10.4012 133.4C10.4012 131.64 10.7852 130.232 11.5532 129.176C12.3426 128.12 13.4252 127.592 14.8012 127.592C16.1879 127.592 17.2652 128.12 18.0332 129.176C18.8119 130.221 19.2013 131.629 19.2013 133.4C19.2013 135.171 18.8119 136.579 18.0332 137.624ZM14.8012 137.416C15.6332 137.416 16.2679 137.069 16.7052 136.376C17.1426 135.683 17.3612 134.691 17.3612 133.4C17.3612 132.109 17.1426 131.117 16.7052 130.424C16.2679 129.731 15.6332 129.384 14.8012 129.384C13.9799 129.384 13.3452 129.731 12.8972 130.424C12.4599 131.117 12.2412 132.109 12.2412 133.4C12.2412 134.691 12.4599 135.683 12.8972 136.376C13.3452 137.069 13.9799 137.416 14.8012 137.416ZM28.5914 137.624C27.8234 138.68 26.746 139.208 25.3594 139.208C23.9834 139.208 22.9007 138.68 22.1114 137.624C21.3434 136.568 20.9594 135.16 20.9594 133.4C20.9594 131.64 21.3434 130.232 22.1114 129.176C22.9007 128.12 23.9834 127.592 25.3594 127.592C26.746 127.592 27.8234 128.12 28.5914 129.176C29.37 130.221 29.7594 131.629 29.7594 133.4C29.7594 135.171 29.37 136.579 28.5914 137.624ZM25.3594 137.416C26.1914 137.416 26.826 137.069 27.2634 136.376C27.7007 135.683 27.9194 134.691 27.9194 133.4C27.9194 132.109 27.7007 131.117 27.2634 130.424C26.826 129.731 26.1914 129.384 25.3594 129.384C24.538 129.384 23.9034 129.731 23.4554 130.424C23.018 131.117 22.7994 132.109 22.7994 133.4C22.7994 134.691 23.018 135.683 23.4554 136.376C23.9034 137.069 24.538 137.416 25.3594 137.416ZM7.616 183.368L5.344 186.376C6.176 186.568 6.83733 186.952 7.328 187.528C7.82933 188.093 8.08 188.787 8.08 189.608C8.08 190.728 7.70133 191.608 6.944 192.248C6.19733 192.888 5.26933 193.208 4.16 193.208C3.28533 193.208 2.512 193.011 1.84 192.616C1.168 192.211 0.688 191.635 0.4 190.888L1.968 189.976C2.29867 190.936 3.02933 191.416 4.16 191.416C4.8 191.416 5.30667 191.256 5.68 190.936C6.05333 190.605 6.24 190.163 6.24 189.608C6.24 189.053 6.05333 188.616 5.68 188.296C5.30667 187.976 4.8 187.816 4.16 187.816H3.744L3.008 186.712L5.424 183.528H0.736V181.8H7.616V183.368ZM17.3926 191.624C16.6246 192.68 15.5473 193.208 14.1606 193.208C12.7846 193.208 11.702 192.68 10.9126 191.624C10.1446 190.568 9.76062 189.16 9.76062 187.4C9.76062 185.64 10.1446 184.232 10.9126 183.176C11.702 182.12 12.7846 181.592 14.1606 181.592C15.5473 181.592 16.6246 182.12 17.3926 183.176C18.1713 184.221 18.5606 185.629 18.5606 187.4C18.5606 189.171 18.1713 190.579 17.3926 191.624ZM14.1606 191.416C14.9926 191.416 15.6273 191.069 16.0646 190.376C16.502 189.683 16.7206 188.691 16.7206 187.4C16.7206 186.109 16.502 185.117 16.0646 184.424C15.6273 183.731 14.9926 183.384 14.1606 183.384C13.3393 183.384 12.7046 183.731 12.2566 184.424C11.8193 185.117 11.6006 186.109 11.6006 187.4C11.6006 188.691 11.8193 189.683 12.2566 190.376C12.7046 191.069 13.3393 191.416 14.1606 191.416ZM27.9507 191.624C27.1827 192.68 26.1054 193.208 24.7187 193.208C23.3427 193.208 22.2601 192.68 21.4707 191.624C20.7027 190.568 20.3187 189.16 20.3187 187.4C20.3187 185.64 20.7027 184.232 21.4707 183.176C22.2601 182.12 23.3427 181.592 24.7187 181.592C26.1054 181.592 27.1827 182.12 27.9507 183.176C28.7294 184.221 29.1187 185.629 29.1187 187.4C29.1187 189.171 28.7294 190.579 27.9507 191.624ZM24.7187 191.416C25.5507 191.416 26.1854 191.069 26.6227 190.376C27.0601 189.683 27.2787 188.691 27.2787 187.4C27.2787 186.109 27.0601 185.117 26.6227 184.424C26.1854 183.731 25.5507 183.384 24.7187 183.384C23.8974 183.384 23.2627 183.731 22.8147 184.424C22.3774 185.117 22.1587 186.109 22.1587 187.4C22.1587 188.691 22.3774 189.683 22.8147 190.376C23.2627 191.069 23.8974 191.416 24.7187 191.416ZM7.872 247H0.496V245.56L4.4 241.576C5.34933 240.627 5.824 239.805 5.824 239.112C5.824 238.579 5.664 238.157 5.344 237.848C5.024 237.539 4.608 237.384 4.096 237.384C3.15733 237.384 2.464 237.848 2.016 238.776L0.464 237.864C0.805333 237.128 1.296 236.568 1.936 236.184C2.576 235.789 3.29067 235.592 4.08 235.592C5.072 235.592 5.91467 235.901 6.608 236.52C7.312 237.149 7.664 237.992 7.664 239.048C7.664 240.179 7.02933 241.395 5.76 242.696L3.232 245.224H7.872V247ZM17.0645 245.624C16.2965 246.68 15.2192 247.208 13.8325 247.208C12.4565 247.208 11.3738 246.68 10.5845 245.624C9.8165 244.568 9.4325 243.16 9.4325 241.4C9.4325 239.64 9.8165 238.232 10.5845 237.176C11.3738 236.12 12.4565 235.592 13.8325 235.592C15.2192 235.592 16.2965 236.12 17.0645 237.176C17.8432 238.221 18.2325 239.629 18.2325 241.4C18.2325 243.171 17.8432 244.579 17.0645 245.624ZM13.8325 245.416C14.6645 245.416 15.2992 245.069 15.7365 244.376C16.1738 243.683 16.3925 242.691 16.3925 241.4C16.3925 240.109 16.1738 239.117 15.7365 238.424C15.2992 237.731 14.6645 237.384 13.8325 237.384C13.0112 237.384 12.3765 237.731 11.9285 238.424C11.4912 239.117 11.2725 240.109 11.2725 241.4C11.2725 242.691 11.4912 243.683 11.9285 244.376C12.3765 245.069 13.0112 245.416 13.8325 245.416ZM27.6226 245.624C26.8546 246.68 25.7773 247.208 24.3906 247.208C23.0146 247.208 21.932 246.68 21.1426 245.624C20.3746 244.568 19.9906 243.16 19.9906 241.4C19.9906 239.64 20.3746 238.232 21.1426 237.176C21.932 236.12 23.0146 235.592 24.3906 235.592C25.7773 235.592 26.8546 236.12 27.6226 237.176C28.4013 238.221 28.7906 239.629 28.7906 241.4C28.7906 243.171 28.4013 244.579 27.6226 245.624ZM24.3906 245.416C25.2226 245.416 25.8573 245.069 26.2946 244.376C26.732 243.683 26.9506 242.691 26.9506 241.4C26.9506 240.109 26.732 239.117 26.2946 238.424C25.8573 237.731 25.2226 237.384 24.3906 237.384C23.5693 237.384 22.9346 237.731 22.4866 238.424C22.0493 239.117 21.8306 240.109 21.8306 241.4C21.8306 242.691 22.0493 243.683 22.4866 244.376C22.9346 245.069 23.5693 245.416 24.3906 245.416ZM0.208 290.84L3.152 289.8H4.752V301H2.912V291.768L0.656 292.408L0.208 290.84ZM14.7051 299.624C13.9371 300.68 12.8598 301.208 11.4731 301.208C10.0971 301.208 9.01446 300.68 8.22513 299.624C7.45713 298.568 7.07313 297.16 7.07313 295.4C7.07313 293.64 7.45713 292.232 8.22513 291.176C9.01446 290.12 10.0971 289.592 11.4731 289.592C12.8598 289.592 13.9371 290.12 14.7051 291.176C15.4838 292.221 15.8731 293.629 15.8731 295.4C15.8731 297.171 15.4838 298.579 14.7051 299.624ZM11.4731 299.416C12.3051 299.416 12.9398 299.069 13.3771 298.376C13.8145 297.683 14.0331 296.691 14.0331 295.4C14.0331 294.109 13.8145 293.117 13.3771 292.424C12.9398 291.731 12.3051 291.384 11.4731 291.384C10.6518 291.384 10.0171 291.731 9.56913 292.424C9.13179 293.117 8.91313 294.109 8.91313 295.4C8.91313 296.691 9.13179 297.683 9.56913 298.376C10.0171 299.069 10.6518 299.416 11.4731 299.416ZM25.2632 299.624C24.4952 300.68 23.4179 301.208 22.0312 301.208C20.6552 301.208 19.5726 300.68 18.7832 299.624C18.0152 298.568 17.6312 297.16 17.6312 295.4C17.6312 293.64 18.0152 292.232 18.7832 291.176C19.5726 290.12 20.6552 289.592 22.0312 289.592C23.4179 289.592 24.4952 290.12 25.2632 291.176C26.0419 292.221 26.4312 293.629 26.4312 295.4C26.4312 297.171 26.0419 298.579 25.2632 299.624ZM22.0312 299.416C22.8632 299.416 23.4979 299.069 23.9352 298.376C24.3726 297.683 24.5912 296.691 24.5912 295.4C24.5912 294.109 24.3726 293.117 23.9352 292.424C23.4979 291.731 22.8632 291.384 22.0312 291.384C21.2099 291.384 20.5752 291.731 20.1272 292.424C19.6899 293.117 19.4712 294.109 19.4712 295.4C19.4712 296.691 19.6899 297.683 20.1272 298.376C20.5752 299.069 21.2099 299.416 22.0312 299.416ZM8.272 353.624C7.504 354.68 6.42667 355.208 5.04 355.208C3.664 355.208 2.58133 354.68 1.792 353.624C1.024 352.568 0.64 351.16 0.64 349.4C0.64 347.64 1.024 346.232 1.792 345.176C2.58133 344.12 3.664 343.592 5.04 343.592C6.42667 343.592 7.504 344.12 8.272 345.176C9.05067 346.221 9.44 347.629 9.44 349.4C9.44 351.171 9.05067 352.579 8.272 353.624ZM5.04 353.416C5.872 353.416 6.50667 353.069 6.944 352.376C7.38133 351.683 7.6 350.691 7.6 349.4C7.6 348.109 7.38133 347.117 6.944 346.424C6.50667 345.731 5.872 345.384 5.04 345.384C4.21867 345.384 3.584 345.731 3.136 346.424C2.69867 347.117 2.48 348.109 2.48 349.4C2.48 350.691 2.69867 351.683 3.136 352.376C3.584 353.069 4.21867 353.416 5.04 353.416Z" fill="black"/>
<path d="M97.208 377.84L100.152 376.8H101.752V388H99.912V378.768L97.656 379.408L97.208 377.84ZM237.385 388H230.009V386.56L233.913 382.576C234.862 381.627 235.337 380.805 235.337 380.112C235.337 379.579 235.177 379.157 234.857 378.848C234.537 378.539 234.121 378.384 233.609 378.384C232.67 378.384 231.977 378.848 231.529 379.776L229.977 378.864C230.318 378.128 230.809 377.568 231.449 377.184C232.089 376.789 232.804 376.592 233.593 376.592C234.585 376.592 235.428 376.901 236.121 377.52C236.825 378.149 237.177 378.992 237.177 380.048C237.177 381.179 236.542 382.395 235.273 383.696L232.745 386.224H237.385V388ZM372.158 378.368L369.886 381.376C370.718 381.568 371.379 381.952 371.87 382.528C372.371 383.093 372.622 383.787 372.622 384.608C372.622 385.728 372.243 386.608 371.486 387.248C370.739 387.888 369.811 388.208 368.702 388.208C367.827 388.208 367.054 388.011 366.382 387.616C365.71 387.211 365.23 386.635 364.942 385.888L366.51 384.976C366.841 385.936 367.571 386.416 368.702 386.416C369.342 386.416 369.849 386.256 370.222 385.936C370.595 385.605 370.782 385.163 370.782 384.608C370.782 384.053 370.595 383.616 370.222 383.296C369.849 382.976 369.342 382.816 368.702 382.816H368.286L367.55 381.712L369.966 378.528H365.278V376.8H372.158V378.368ZM507.47 384.272H508.75V385.984H507.47V388H505.614V385.984H500.11V384.272L503.966 376.8H505.966L502.11 384.272H505.614V381.36H507.47V384.272ZM638.576 381.024H639.984C641.05 381.024 641.952 381.344 642.688 381.984C643.424 382.613 643.792 383.488 643.792 384.608C643.792 385.728 643.413 386.608 642.656 387.248C641.909 387.888 640.981 388.208 639.872 388.208C638.965 388.208 638.176 388 637.504 387.584C636.832 387.168 636.352 386.576 636.064 385.808L637.648 384.896C637.957 385.909 638.698 386.416 639.872 386.416C640.501 386.416 641.002 386.256 641.376 385.936C641.76 385.605 641.952 385.163 641.952 384.608C641.952 384.064 641.765 383.632 641.392 383.312C641.018 382.981 640.522 382.816 639.904 382.816H636.64L637.072 376.8H643.312V378.528H638.768L638.576 381.024ZM775.022 380.56H775.23C776.404 380.56 777.353 380.917 778.078 381.632C778.814 382.336 779.182 383.253 779.182 384.384C779.182 385.504 778.814 386.427 778.078 387.152C777.342 387.856 776.393 388.208 775.23 388.208C774.057 388.208 773.102 387.856 772.366 387.152C771.63 386.427 771.262 385.504 771.262 384.384C771.262 383.531 771.486 382.779 771.934 382.128L775.486 376.8H777.582L775.022 380.56ZM775.23 386.464C775.849 386.464 776.356 386.277 776.75 385.904C777.145 385.52 777.342 385.013 777.342 384.384C777.342 383.755 777.145 383.253 776.75 382.88C776.356 382.496 775.849 382.304 775.23 382.304C774.59 382.304 774.073 382.496 773.678 382.88C773.294 383.253 773.102 383.755 773.102 384.384C773.102 385.013 773.294 385.52 773.678 385.904C774.073 386.277 774.59 386.464 775.23 386.464ZM906.381 378.56V376.8H913.501V378.4L909.565 388H907.629L911.501 378.56H906.381ZM1047.31 382.176C1048.41 382.784 1048.96 383.691 1048.96 384.896C1048.96 385.909 1048.6 386.715 1047.89 387.312C1047.18 387.909 1046.24 388.208 1045.04 388.208C1043.85 388.208 1042.89 387.915 1042.18 387.328C1041.46 386.741 1041.1 385.931 1041.1 384.896C1041.1 384.32 1041.25 383.797 1041.54 383.328C1041.82 382.848 1042.23 382.464 1042.75 382.176C1041.91 381.621 1041.49 380.832 1041.49 379.808C1041.49 378.784 1041.83 377.995 1042.51 377.44C1043.21 376.875 1044.05 376.592 1045.04 376.592C1046.02 376.592 1046.86 376.875 1047.55 377.44C1048.25 378.005 1048.59 378.795 1048.59 379.808C1048.59 380.821 1048.17 381.611 1047.31 382.176ZM1045.04 378.336C1044.53 378.336 1044.11 378.475 1043.79 378.752C1043.48 379.019 1043.33 379.397 1043.33 379.888C1043.33 380.357 1043.49 380.736 1043.81 381.024C1044.13 381.301 1044.54 381.44 1045.04 381.44C1045.53 381.44 1045.94 381.301 1046.26 381.024C1046.59 380.736 1046.75 380.357 1046.75 379.888C1046.75 379.397 1046.59 379.019 1046.27 378.752C1045.95 378.475 1045.54 378.336 1045.04 378.336ZM1045.04 386.464C1045.67 386.464 1046.17 386.309 1046.54 386C1046.93 385.691 1047.12 385.264 1047.12 384.72C1047.12 384.176 1046.93 383.749 1046.54 383.44C1046.17 383.131 1045.67 382.976 1045.04 382.976C1044.4 382.976 1043.89 383.131 1043.5 383.44C1043.13 383.749 1042.94 384.176 1042.94 384.72C1042.94 385.264 1043.13 385.691 1043.5 386C1043.89 386.309 1044.4 386.464 1045.04 386.464Z" fill="black"/>
<rect x="88" y="333" width="23" height="23" fill="#FFDD71"/>
<rect x="223" y="333" width="23" height="23" fill="#FFDD71"/>
<rect x="223" y="308" width="23" height="23" fill="#FFDD71"/>
<line x1="57" y1="355.5" x2="1075" y2="355.5" stroke="white"/>
<line x1="57" y1="300.5" x2="1075" y2="300.5" stroke="white"/>
<line x1="57" y1="245.5" x2="1075" y2="245.5" stroke="white"/>
<line x1="57" y1="190.5" x2="1075" y2="190.5" stroke="white"/>
<line x1="57" y1="135.5" x2="1075" y2="135.5" stroke="white"/>
<line x1="57" y1="80.5" x2="1075" y2="80.5" stroke="white"/>
<line x1="57" y1="25.5" x2="1075" y2="25.5" stroke="white"/>
<rect x="492" y="333" width="23" height="23" fill="#FFDD71"/>
<rect x="492" y="308" width="23" height="23" fill="#FFDD71"/>
<rect x="492" y="283" width="23" height="23" fill="#FFDD71"/>
<rect x="492" y="258" width="23" height="23" fill="#FFDD71"/>
<rect x="357" y="333" width="23" height="23" fill="#FFDD71"/>
<rect x="357" y="308" width="23" height="23" fill="#FFDD71"/>
<rect x="357" y="283" width="23" height="23" fill="#FFDD71"/>
<rect x="632" y="333" width="23" height="23" fill="#FFDD71"/>
<rect x="632" y="308" width="23" height="23" fill="#FFDD71"/>
<rect x="632" y="283" width="23" height="23" fill="#FFDD71"/>
<rect x="632" y="258" width="23" height="23" fill="#FFDD71"/>
<rect x="632" y="233" width="23" height="23" fill="#FFDD71"/>
<rect x="632" y="208" width="23" height="23" fill="#FFDD71"/>
<rect x="760" y="333" width="23" height="23" fill="#FFDD71"/>
<rect x="760" y="308" width="23" height="23" fill="#FFDD71"/>
<rect x="760" y="283" width="23" height="23" fill="#FFDD71"/>
<rect x="760" y="258" width="23" height="23" fill="#FFDD71"/>
<rect x="760" y="233" width="23" height="23" fill="#FFDD71"/>
<rect x="760" y="208" width="23" height="23" fill="#FFDD71"/>
<rect x="760" y="183" width="23" height="23" fill="#FFDD71"/>
<rect x="896" y="333" width="23" height="23" fill="#FFDD71"/>
<rect x="896" y="308" width="23" height="23" fill="#FFDD71"/>
<rect x="896" y="283" width="23" height="23" fill="#FFDD71"/>
<rect x="896" y="258" width="23" height="23" fill="#FFDD71"/>
<rect x="896" y="233" width="23" height="23" fill="#FFDD71"/>
<rect x="896" y="208" width="23" height="23" fill="#FFDD71"/>
<rect x="896" y="183" width="23" height="23" fill="#FFDD71"/>
<rect x="896" y="158" width="23" height="23" fill="#FFDD71"/>
<rect x="896" y="133" width="23" height="23" fill="#FFDD71"/>
<rect x="1032" y="333" width="23" height="23" fill="#FFDD71"/>
<rect x="1032" y="308" width="23" height="23" fill="#FFDD71"/>
<rect x="1032" y="283" width="23" height="23" fill="#FFDD71"/>
<rect x="1032" y="258" width="23" height="23" fill="#FFDD71"/>
<rect x="1032" y="233" width="23" height="23" fill="#FFDD71"/>
<rect x="1032" y="208" width="23" height="23" fill="#FFDD71"/>
<rect x="1032" y="183" width="23" height="23" fill="#FFDD71"/>
<rect x="1032" y="158" width="23" height="23" fill="#FFDD71"/>
<rect x="1032" y="133" width="23" height="23" fill="#FFDD71"/>
<rect x="1032" y="108" width="23" height="23" fill="#FFDD71"/>
<rect x="1032" y="83" width="23" height="23" fill="#FFDD71"/>
</svg>
