<svg width="37" height="34" viewBox="0 0 37 34" fill="none" xmlns="http://www.w3.org/2000/svg">
<path d="M33.6364 17V13.6H30.2727V10.2V6.8V3.4H26.9091V6.8H23.5455V3.4H20.1818V0H16.8182V3.4H13.4545V6.8H10.0909V10.2H6.72727V13.6H3.36364V17H0V20.4H3.36364V22.1V23.8V25.5V27.2V28.9V30.6V32.3V34H6.72727H8.40909H10.0909H11.7727H13.4545H15.1364H16.8182H18.5H20.1818H21.8636H23.5455H25.2273H26.9091H28.5909H30.2727H33.6364V32.3V30.6V28.9V27.2V25.5V23.8V22.1V20.4H37V17H33.6364ZM18.5 30.6H16.8182V28.9V27.2V25.5V23.8H18.5H20.1818V25.5V27.2V28.9V30.6H18.5ZM30.2727 22.1V23.8V25.5V27.2V28.9V30.6H28.5909H26.9091H25.2273H23.5455V28.9V27.2V25.5V23.8V20.4H21.8636H20.1818H18.5H16.8182H15.1364H13.4545V23.8V25.5V27.2V28.9V30.6H11.7727H10.0909H8.40909H6.72727V28.9V27.2V25.5V23.8V22.1V20.4V17H10.0909V13.6H13.4545V10.2H16.8182V6.8H20.1818V10.2H23.5455V13.6H26.9091V17H30.2727V20.4V22.1Z" fill="#24C2F9"/>
</svg>
