<svg width="323" height="184" viewBox="0 0 323 184" fill="none" xmlns="http://www.w3.org/2000/svg">
<rect x="0.945312" y="25.9541" width="44.3961" height="14.169" fill="white"/>
<rect x="54.7871" y="25.9541" width="44.3961" height="14.169" fill="white"/>
<rect x="99.1816" y="110.022" width="44.3961" height="14.169" fill="white"/>
<rect x="99.1816" y="138.361" width="44.3961" height="14.169" fill="white"/>
<rect x="22.6699" y="110.022" width="44.3961" height="14.169" fill="white"/>
<rect y="169.53" width="89.7368" height="14.169" fill="white"/>
<rect x="106.74" y="25.9541" width="15.1136" height="15.1136" fill="white"/>
<path fill-rule="evenodd" clip-rule="evenodd" d="M120.906 8.9518V15.5633H136.02V0.449707H129.407V8.9518H120.906Z" fill="white"/>
<path fill-rule="evenodd" clip-rule="evenodd" d="M166.248 8.9518V15.5633H151.134V0.449707H157.747V8.9518H166.248Z" fill="white"/>
<rect width="15.1136" height="15.1136" transform="matrix(-1 0 0 1 180.418 25.9541)" fill="white"/>
<rect x="121.854" y="41.0664" width="14.169" height="14.169" fill="white"/>
<rect width="14.169" height="14.169" transform="matrix(-1 0 0 1 165.305 41.0664)" fill="white"/>
<rect x="253.152" y="125.136" width="14.169" height="14.169" fill="white"/>
<rect width="14.169" height="14.169" transform="matrix(-1 0 0 1 296.602 125.136)" fill="white"/>
<rect x="180.418" y="99.6318" width="15.1136" height="15.1136" transform="rotate(-180 180.418 99.6318)" fill="white"/>
<rect width="15.1136" height="15.1136" transform="matrix(1 8.74228e-08 8.74228e-08 -1 106.74 99.6318)" fill="white"/>
<rect x="165.305" y="84.5176" width="14.169" height="14.169" transform="rotate(-180 165.305 84.5176)" fill="white"/>
<rect x="136.023" y="55.2368" width="15.1136" height="15.1136" fill="white"/>
<rect width="14.169" height="14.169" transform="matrix(1 8.74228e-08 8.74228e-08 -1 121.854 84.5176)" fill="white"/>
<rect width="14.169" height="14.169" transform="matrix(1 8.74228e-08 8.74228e-08 -1 143.578 138.361)" fill="white"/>
<rect x="267.32" y="139.306" width="15.1136" height="15.1136" fill="white"/>
<rect x="54.7871" y="85.4634" width="44.3961" height="14.169" fill="white"/>
<rect x="54.7871" y="55.2368" width="29.2825" height="15.1136" fill="white"/>
<rect x="203.088" y="55.2368" width="34.9501" height="15.1136" fill="white"/>
<rect x="16.0586" y="36.3442" width="14.169" height="63.288" fill="white"/>
<rect x="16.0586" y="110.022" width="14.169" height="63.288" fill="white"/>
<rect x="61.3984" y="110.022" width="14.169" height="63.288" fill="white"/>
<rect x="99.1816" y="110.022" width="14.169" height="73.6786" fill="white"/>
<rect x="191.752" y="25.9541" width="14.169" height="73.6786" fill="white"/>
<rect x="238.982" y="110.022" width="14.169" height="73.6786" fill="white"/>
<rect x="296.602" y="110.022" width="14.169" height="73.6786" fill="white"/>
<rect x="236.148" y="25.9541" width="14.169" height="73.6786" fill="white"/>
<rect x="262.598" y="41.0664" width="15.1136" height="44.3961" fill="white"/>
<rect x="306.992" y="41.0664" width="15.1136" height="44.3961" fill="white"/>
<rect width="29.2825" height="15.1136" transform="matrix(-1 0 0 1 306.992 25.9541)" fill="white"/>
<rect width="29.2825" height="14.169" transform="matrix(-1 0 0 1 306.992 85.4634)" fill="white"/>
<rect x="167.193" y="125.136" width="15.1136" height="44.3961" fill="white"/>
<rect x="211.588" y="125.136" width="15.1136" height="44.3961" fill="white"/>
<rect width="29.2825" height="15.1136" transform="matrix(-1 0 0 1 211.588 110.022)" fill="white"/>
<rect width="29.2825" height="14.169" transform="matrix(-1 0 0 1 211.588 169.53)" fill="white"/>
<rect x="54.7871" y="36.3442" width="14.169" height="63.288" fill="white"/>
</svg>
